<svg width="20" height="20" viewBox="0 0 20 20" fill="none" xmlns="http://www.w3.org/2000/svg">
<path d="M9.99999 9.28983L14.1427 5.14708C14.3388 4.95097 14.6568 4.95097 14.8529 5.14708C15.049 5.34319 15.049 5.66115 14.8529 5.85726L10.7102 10L14.8529 14.1427C15.049 14.3388 15.049 14.6568 14.8529 14.8529C14.6568 15.049 14.3388 15.049 14.1427 14.8529L9.99999 10.7102L5.85728 14.8529C5.66117 15.049 5.34321 15.049 5.1471 14.8529C4.95099 14.6568 4.95099 14.3388 5.1471 14.1427L9.28981 10L5.14708 5.85728C4.95097 5.66117 4.95097 5.34321 5.14708 5.1471C5.34319 4.95099 5.66115 4.95099 5.85727 5.1471L9.99999 9.28983Z" fill="black"/>
</svg>
