<svg width="20" height="20" viewBox="0 0 20 20" fill="none" xmlns="http://www.w3.org/2000/svg">
<path fill-rule="evenodd" clip-rule="evenodd" d="M13.5462 7H7.45385C7.20319 7 7 7.20319 7 7.45385V13.5462C7 13.7968 7.20319 14 7.45385 14H13.5462C13.7968 14 14 13.7968 14 13.5462V7.45385C14 7.20319 13.7968 7 13.5462 7ZM7.45385 6H13.5462C14.3491 6 15 6.65091 15 7.45385V13.5462C15 14.3491 14.3491 15 13.5462 15H7.45385C6.65091 15 6 14.3491 6 13.5462V7.45385C6 6.65091 6.65091 6 7.45385 6Z" fill="black"/>
</svg>
