<?xml version="1.0" standalone="no"?><!-- Generator: Gravit.io --><svg xmlns="http://www.w3.org/2000/svg" xmlns:xlink="http://www.w3.org/1999/xlink" style="isolation:isolate" viewBox="0 0 24 24" width="24" height="24"><path d=" M 6.9 14.668421 L 6.9 14.668421 Q 6.078947 14.668421 5.463158 14.321053 L 5.463158 14.321053 L 5.463158 14.321053 Q 4.847368 13.973684 4.515789 13.326316 L 4.515789 13.326316 L 4.515789 13.326316 Q 4.184211 12.678947 4.184211 11.810526 L 4.184211 11.810526 L 4.184211 11.810526 Q 4.184211 10.942105 4.515789 10.298684 L 4.515789 10.298684 L 4.515789 10.298684 Q 4.847368 9.655263 5.463158 9.307895 L 5.463158 9.307895 L 5.463158 9.307895 Q 6.078947 8.960526 6.9 8.960526 L 6.9 8.960526 L 6.9 8.960526 Q 7.934211 8.960526 8.684211 9.528947 L 8.684211 9.528947 L 8.684211 9.528947 Q 8.802632 9.623684 8.85 9.718421 L 8.85 9.718421 L 8.85 9.718421 Q 8.897368 9.813158 8.897368 9.955263 L 8.897368 9.955263 L 8.897368 9.955263 Q 8.897368 10.160526 8.782895 10.306579 L 8.782895 10.306579 L 8.782895 10.306579 Q 8.668421 10.452632 8.502632 10.452632 L 8.502632 10.452632 L 8.502632 10.452632 Q 8.392105 10.452632 8.309211 10.425 L 8.309211 10.425 L 8.309211 10.425 Q 8.226316 10.397368 8.123684 10.326316 L 8.123684 10.326316 L 8.123684 10.326316 Q 7.807895 10.121053 7.539474 10.030263 L 7.539474 10.030263 L 7.539474 10.030263 Q 7.271053 9.939474 6.963158 9.939474 L 6.963158 9.939474 L 6.963158 9.939474 Q 6.205263 9.939474 5.822368 10.409211 L 5.822368 10.409211 L 5.822368 10.409211 Q 5.439474 10.878947 5.439474 11.810526 L 5.439474 11.810526 L 5.439474 11.810526 Q 5.439474 13.689474 6.963158 13.689474 L 6.963158 13.689474 L 6.963158 13.689474 Q 7.255263 13.689474 7.515789 13.598684 L 7.515789 13.598684 L 7.515789 13.598684 Q 7.776316 13.507895 8.123684 13.302632 L 8.123684 13.302632 L 8.123684 13.302632 Q 8.242105 13.231579 8.321053 13.203947 L 8.321053 13.203947 L 8.321053 13.203947 Q 8.4 13.176316 8.502632 13.176316 L 8.502632 13.176316 L 8.502632 13.176316 Q 8.668421 13.176316 8.782895 13.322368 L 8.782895 13.322368 L 8.782895 13.322368 Q 8.897368 13.468421 8.897368 13.673684 L 8.897368 13.673684 L 8.897368 13.673684 Q 8.897368 13.815789 8.846053 13.914474 L 8.846053 13.914474 L 8.846053 13.914474 Q 8.794737 14.013158 8.684211 14.1 L 8.684211 14.1 L 8.684211 14.1 Q 7.934211 14.668421 6.9 14.668421 L 6.9 14.668421 L 6.9 14.668421 Z  M 11.7 14.668421 L 11.7 14.668421 Q 11.076316 14.668421 10.539474 14.522368 L 10.539474 14.522368 L 10.539474 14.522368 Q 10.002632 14.376316 9.663158 14.107895 L 9.663158 14.107895 L 9.663158 14.107895 Q 9.544737 14.021053 9.493421 13.922368 L 9.493421 13.922368 L 9.493421 13.922368 Q 9.442105 13.823684 9.442105 13.673684 L 9.442105 13.673684 L 9.442105 13.673684 Q 9.442105 13.476316 9.564474 13.326316 L 9.564474 13.326316 L 9.564474 13.326316 Q 9.686842 13.176316 9.844737 13.176316 L 9.844737 13.176316 L 9.844737 13.176316 Q 9.931579 13.176316 10.014474 13.203947 L 10.014474 13.203947 L 10.014474 13.203947 Q 10.097368 13.231579 10.215789 13.302632 L 10.215789 13.302632 L 10.215789 13.302632 Q 10.555263 13.515789 10.902632 13.614474 L 10.902632 13.614474 L 10.902632 13.614474 Q 11.25 13.713158 11.668421 13.713158 L 11.668421 13.713158 L 11.668421 13.713158 Q 12.189474 13.713158 12.465789 13.539474 L 12.465789 13.539474 L 12.465789 13.539474 Q 12.742105 13.365789 12.742105 13.042105 L 12.742105 13.042105 L 12.742105 13.042105 Q 12.742105 12.797368 12.485526 12.647368 L 12.485526 12.647368 L 12.485526 12.647368 Q 12.228947 12.497368 11.573684 12.363158 L 11.573684 12.363158 L 11.573684 12.363158 Q 10.839474 12.213158 10.401316 12 L 10.401316 12 L 10.401316 12 Q 9.963158 11.786842 9.761842 11.471053 L 9.761842 11.471053 L 9.761842 11.471053 Q 9.560526 11.155263 9.560526 10.705263 L 9.560526 10.705263 L 9.560526 10.705263 Q 9.560526 10.207895 9.848684 9.809211 L 9.848684 9.809211 L 9.848684 9.809211 Q 10.136842 9.410526 10.646053 9.185526 L 10.646053 9.185526 L 10.646053 9.185526 Q 11.155263 8.960526 11.794737 8.960526 L 11.794737 8.960526 L 11.794737 8.960526 Q 12.915789 8.960526 13.642105 9.521053 L 13.642105 9.521053 L 13.642105 9.521053 Q 13.760526 9.615789 13.811842 9.714474 L 13.811842 9.714474 L 13.811842 9.714474 Q 13.863158 9.813158 13.863158 9.955263 L 13.863158 9.955263 L 13.863158 9.955263 Q 13.863158 10.152632 13.740789 10.302632 L 13.740789 10.302632 L 13.740789 10.302632 Q 13.618421 10.452632 13.460526 10.452632 L 13.460526 10.452632 L 13.460526 10.452632 Q 13.373684 10.452632 13.298684 10.428947 L 13.298684 10.428947 L 13.298684 10.428947 Q 13.223684 10.405263 13.089474 10.326316 L 13.089474 10.326316 L 13.089474 10.326316 Q 12.765789 10.121053 12.493421 10.018421 L 12.493421 10.018421 L 12.493421 10.018421 Q 12.221053 9.915789 11.802632 9.915789 L 11.802632 9.915789 L 11.802632 9.915789 Q 11.321053 9.915789 11.044737 10.101316 L 11.044737 10.101316 L 11.044737 10.101316 Q 10.768421 10.286842 10.768421 10.610526 L 10.768421 10.610526 L 10.768421 10.610526 Q 10.768421 10.8 10.875 10.922368 L 10.875 10.922368 L 10.875 10.922368 Q 10.981579 11.044737 11.230263 11.139474 L 11.230263 11.139474 L 11.230263 11.139474 Q 11.478947 11.234211 11.936842 11.336842 L 11.936842 11.336842 L 11.936842 11.336842 Q 13.010526 11.573684 13.480263 11.944737 L 13.480263 11.944737 L 13.480263 11.944737 Q 13.95 12.315789 13.95 12.963158 L 13.95 12.963158 L 13.95 12.963158 Q 13.95 13.468421 13.669737 13.855263 L 13.669737 13.855263 L 13.669737 13.855263 Q 13.389474 14.242105 12.880263 14.455263 L 12.880263 14.455263 L 12.880263 14.455263 Q 12.371053 14.668421 11.7 14.668421 L 11.7 14.668421 L 11.7 14.668421 Z  M 16.839474 14.668421 L 16.839474 14.668421 Q 16.215789 14.668421 15.678947 14.522368 L 15.678947 14.522368 L 15.678947 14.522368 Q 15.142105 14.376316 14.802632 14.107895 L 14.802632 14.107895 L 14.802632 14.107895 Q 14.684211 14.021053 14.632895 13.922368 L 14.632895 13.922368 L 14.632895 13.922368 Q 14.581579 13.823684 14.581579 13.673684 L 14.581579 13.673684 L 14.581579 13.673684 Q 14.581579 13.476316 14.703947 13.326316 L 14.703947 13.326316 L 14.703947 13.326316 Q 14.826316 13.176316 14.984211 13.176316 L 14.984211 13.176316 L 14.984211 13.176316 Q 15.071053 13.176316 15.153947 13.203947 L 15.153947 13.203947 L 15.153947 13.203947 Q 15.236842 13.231579 15.355263 13.302632 L 15.355263 13.302632 L 15.355263 13.302632 Q 15.694737 13.515789 16.042105 13.614474 L 16.042105 13.614474 L 16.042105 13.614474 Q 16.389474 13.713158 16.807895 13.713158 L 16.807895 13.713158 L 16.807895 13.713158 Q 17.328947 13.713158 17.605263 13.539474 L 17.605263 13.539474 L 17.605263 13.539474 Q 17.881579 13.365789 17.881579 13.042105 L 17.881579 13.042105 L 17.881579 13.042105 Q 17.881579 12.797368 17.625 12.647368 L 17.625 12.647368 L 17.625 12.647368 Q 17.368421 12.497368 16.713158 12.363158 L 16.713158 12.363158 L 16.713158 12.363158 Q 15.978947 12.213158 15.540789 12 L 15.540789 12 L 15.540789 12 Q 15.102632 11.786842 14.901316 11.471053 L 14.901316 11.471053 L 14.901316 11.471053 Q 14.7 11.155263 14.7 10.705263 L 14.7 10.705263 L 14.7 10.705263 Q 14.7 10.207895 14.988158 9.809211 L 14.988158 9.809211 L 14.988158 9.809211 Q 15.276316 9.410526 15.785526 9.185526 L 15.785526 9.185526 L 15.785526 9.185526 Q 16.294737 8.960526 16.934211 8.960526 L 16.934211 8.960526 L 16.934211 8.960526 Q 18.055263 8.960526 18.781579 9.521053 L 18.781579 9.521053 L 18.781579 9.521053 Q 18.9 9.615789 18.951316 9.714474 L 18.951316 9.714474 L 18.951316 9.714474 Q 19.002632 9.813158 19.002632 9.955263 L 19.002632 9.955263 L 19.002632 9.955263 Q 19.002632 10.152632 18.880263 10.302632 L 18.880263 10.302632 L 18.880263 10.302632 Q 18.757895 10.452632 18.6 10.452632 L 18.6 10.452632 L 18.6 10.452632 Q 18.513158 10.452632 18.438158 10.428947 L 18.438158 10.428947 L 18.438158 10.428947 Q 18.363158 10.405263 18.228947 10.326316 L 18.228947 10.326316 L 18.228947 10.326316 Q 17.905263 10.121053 17.632895 10.018421 L 17.632895 10.018421 L 17.632895 10.018421 Q 17.360526 9.915789 16.942105 9.915789 L 16.942105 9.915789 L 16.942105 9.915789 Q 16.460526 9.915789 16.184211 10.101316 L 16.184211 10.101316 L 16.184211 10.101316 Q 15.907895 10.286842 15.907895 10.610526 L 15.907895 10.610526 L 15.907895 10.610526 Q 15.907895 10.8 16.014474 10.922368 L 16.014474 10.922368 L 16.014474 10.922368 Q 16.121053 11.044737 16.369737 11.139474 L 16.369737 11.139474 L 16.369737 11.139474 Q 16.618421 11.234211 17.076316 11.336842 L 17.076316 11.336842 L 17.076316 11.336842 Q 18.15 11.573684 18.619737 11.944737 L 18.619737 11.944737 L 18.619737 11.944737 Q 19.089474 12.315789 19.089474 12.963158 L 19.089474 12.963158 L 19.089474 12.963158 Q 19.089474 13.468421 18.809211 13.855263 L 18.809211 13.855263 L 18.809211 13.855263 Q 18.528947 14.242105 18.019737 14.455263 L 18.019737 14.455263 L 18.019737 14.455263 Q 17.510526 14.668421 16.839474 14.668421 L 16.839474 14.668421 L 16.839474 14.668421 Z " fill-rule="evenodd" fill="rgb(40,180,99)"/></svg>