<svg width="54" height="54" viewBox="0 0 54 54" fill="none" xmlns="http://www.w3.org/2000/svg">
<g filter="url(#filter0_d)">
<rect x="4" y="3" width="46" height="46" rx="5" fill="white"/>
</g>
<path d="M23.8345 15.3254C25.6029 12.7562 29.3971 12.7562 31.1655 15.3254V15.3254C31.9255 16.4294 33.1426 17.1322 34.4788 17.2383V17.2383C37.5879 17.4851 39.485 20.771 38.1442 23.5871V23.5871C37.5681 24.7973 37.5681 26.2027 38.1442 27.4129V27.4129C39.485 30.229 37.5879 33.5149 34.4788 33.7617V33.7617C33.1426 33.8678 31.9255 34.5706 31.1655 35.6746V35.6746C29.3971 38.2438 25.6029 38.2438 23.8345 35.6746V35.6746C23.0745 34.5706 21.8574 33.8678 20.5212 33.7617V33.7617C17.4121 33.5149 15.515 30.229 16.8558 27.4129V27.4129C17.4319 26.2027 17.4319 24.7973 16.8558 23.5871V23.5871C15.515 20.771 17.4121 17.4851 20.5212 17.2383V17.2383C21.8574 17.1322 23.0745 16.4294 23.8345 15.3254V15.3254Z" fill="#9A9A9A"/>
<circle cx="27.5" cy="25.4999" r="6.38235" fill="#F6F6F6"/>
<defs>
<filter id="filter0_d" x="0" y="0" width="54" height="54" filterUnits="userSpaceOnUse" color-interpolation-filters="sRGB">
<feFlood flood-opacity="0" result="BackgroundImageFix"/>
<feColorMatrix in="SourceAlpha" type="matrix" values="0 0 0 0 0 0 0 0 0 0 0 0 0 0 0 0 0 0 127 0"/>
<feOffset dy="1"/>
<feGaussianBlur stdDeviation="2"/>
<feColorMatrix type="matrix" values="0 0 0 0 0 0 0 0 0 0 0 0 0 0 0 0 0 0 0.25 0"/>
<feBlend mode="normal" in2="BackgroundImageFix" result="effect1_dropShadow"/>
<feBlend mode="normal" in="SourceGraphic" in2="effect1_dropShadow" result="shape"/>
</filter>
</defs>
</svg>
