<svg width="67" height="67" viewBox="0 0 67 67" fill="none" xmlns="http://www.w3.org/2000/svg">
<path d="M11.1237 13.0008H28.8262C31.4406 13.1236 33.9604 14.0162 36.0692 15.5663L45.1208 22.9831H7V16.9713C7.00958 16.4397 7.12389 15.9152 7.3364 15.4278C7.54892 14.9404 7.85545 14.4997 8.23847 14.1309C8.62149 13.7621 9.07348 13.4725 9.56856 13.2786C10.0636 13.0846 10.5921 12.9903 11.1237 13.0008V13.0008Z" fill="#FFE681"/>
<path d="M7 20.1555H54.8969C56.4477 20.0908 57.9609 20.6435 59.1049 21.6925C60.2489 22.7416 60.9304 24.2013 61 25.7519V49.6754C60.9304 51.226 60.2489 52.6857 59.1049 53.7348C57.9609 54.7838 56.4477 55.3365 54.8969 55.2718H13.1031C11.5523 55.3365 10.0391 54.7838 8.89506 53.7348C7.75106 52.6857 7.06959 51.226 7 49.6754V20.1555Z" fill="#FFC300"/>
</svg>
