<svg xmlns="http://www.w3.org/2000/svg" width="24" height="24" viewBox="0 0 24 24">
  <g id="folder_opened" transform="translate(-0.5 0.389)">
    <path id="Trazado_50" data-name="Trazado 50" d="M3.5,7.315H18.6a1.748,1.748,0,0,1,1.761,1.733v8.318A1.748,1.748,0,0,1,18.6,19.1H5.261A1.748,1.748,0,0,1,3.5,17.366Z" transform="translate(-0.388 0.551)" fill="#ffe681"/>
    <path id="Trazado_51" data-name="Trazado 51" d="M4.895,4.611H10.9a4.509,4.509,0,0,1,2.459.871L16.44,8H3.5V5.959A1.373,1.373,0,0,1,4.895,4.611Z" transform="translate(-0.388 0.771)" fill="#ffe681"/>
    <path id="Trazado_52" data-name="Trazado 52" d="M22.358,10.14l-2.109,6.8a1.61,1.61,0,0,1-1.668,1.544H5.168A1.61,1.61,0,0,1,3.5,16.935l2.109-6.8A1.788,1.788,0,0,1,7.244,9H21.432A.861.861,0,0,1,22.358,10.14Z" transform="translate(-0.388 1.333)" fill="#ffc300"/>
    <rect id="spacer" width="24" height="24" transform="translate(0.5 -0.389)" fill="none"/>
  </g>
</svg>
