<svg xmlns="http://www.w3.org/2000/svg" width="24" height="24" viewBox="0 0 24 24">
  <g id="folder_opened" transform="translate(-0.5 0.389)">
    <path id="Trazado_50" data-name="Trazado 50" d="M3.5,7.315H19.916A1.839,1.839,0,0,1,21.83,9.067v8.407a1.839,1.839,0,0,1-1.914,1.751H5.414A1.839,1.839,0,0,1,3.5,17.474Z" transform="translate(-0.388 -0.449)" fill="#ffe681"/>
    <path id="Trazado_51" data-name="Trazado 51" d="M4.895,4.611H10.9a4.754,4.754,0,0,1,2.459.8L16.44,7.738H3.5V5.854A1.326,1.326,0,0,1,4.895,4.611Z" transform="translate(-0.388 0.034)" fill="#ffe681"/>
    <path id="Trazado_52" data-name="Trazado 52" d="M24.184,10.14l-2.313,6.8a1.706,1.706,0,0,1-1.829,1.544H5.329A1.706,1.706,0,0,1,3.5,16.935l2.313-6.8A1.961,1.961,0,0,1,7.606,9H23.167C23.943,9,24.4,9.511,24.184,10.14Z" transform="translate(-0.388 0.333)" fill="#ffc300"/>
    <rect id="spacer" width="24" height="24" transform="translate(0.5 -0.389)" fill="none"/>
  </g>
</svg>
