<svg width="66" height="67" viewBox="0 0 66 67" fill="none" xmlns="http://www.w3.org/2000/svg">
<path d="M7 19.0049H52.0208C53.3532 18.9434 54.6536 19.4658 55.6373 20.458C56.621 21.4502 57.208 22.8313 57.2699 24.2992V49.7039C57.2073 51.1712 56.62 52.5515 55.6363 53.543C54.6527 54.5346 53.3528 55.0566 52.0208 54.9951H12.2491C10.9171 55.0566 9.61723 54.5346 8.6336 53.543C7.64996 52.5515 7.06262 51.1712 7 49.7039V19.0049Z" fill="#FFE681"/>
<path d="M11.2617 13.0055H29.6071C32.2889 13.1032 34.8892 13.891 37.1194 15.2816L46.5319 21.9021H7V16.5419C7.06538 15.548 7.55009 14.6184 8.34843 13.9559C9.14678 13.2935 10.194 12.9518 11.2617 13.0055V13.0055Z" fill="#FFE681"/>
<path d="M62.8554 29.4842L56.6093 50.2661C56.498 51.6288 55.9177 52.8874 54.9937 53.7702C54.0697 54.653 52.876 55.0893 51.6703 54.9848H11.9391C10.7312 55.0891 9.53563 54.6508 8.61122 53.7647C7.68682 52.8787 7.10797 51.6163 7 50.2508L13.2461 29.4689C13.674 28.4259 14.3581 27.5443 15.2166 26.9293C16.0751 26.3142 17.0719 25.9917 18.0879 26.0002H60.109C62.2046 26.0002 63.4387 27.5619 62.8554 29.4842Z" fill="#FFC300"/>
</svg>
