<svg width="55" height="39" viewBox="0 0 55 39" fill="none" xmlns="http://www.w3.org/2000/svg">
<path d="M53.5 19C53.5 21.6712 51.1547 24.5434 46.3044 26.8363C41.5695 29.0746 34.9228 30.5 27.5 30.5C20.0772 30.5 13.4305 29.0746 8.69563 26.8363C3.84532 24.5434 1.5 21.6712 1.5 19C1.5 16.3288 3.84532 13.4566 8.69563 11.1637C13.4305 8.9254 20.0772 7.5 27.5 7.5C34.9228 7.5 41.5695 8.9254 46.3044 11.1637C51.1547 13.4566 53.5 16.3288 53.5 19Z" stroke="black" stroke-width="3"/>
<circle cx="27.5" cy="19.5" r="6.5" fill="black"/>
<line x1="8.94013" y1="36.819" x2="44.9401" y2="2.81896" stroke="#E5E5E5" stroke-width="6"/>
<path d="M10.3161 34.2705C9.91315 34.6482 9.89273 35.281 10.2705 35.6839C10.6482 36.0869 11.281 36.1073 11.6839 35.7295L10.3161 34.2705ZM43.6839 5.72954C44.0869 5.35181 44.1073 4.71897 43.7295 4.31606C43.3518 3.91315 42.719 3.89273 42.3161 4.27046L43.6839 5.72954ZM11.6839 35.7295L43.6839 5.72954L42.3161 4.27046L10.3161 34.2705L11.6839 35.7295Z" fill="black"/>
</svg>
