<?xml version="1.0" standalone="no"?><!-- Generator: Gravit.io --><svg xmlns="http://www.w3.org/2000/svg" xmlns:xlink="http://www.w3.org/1999/xlink" style="isolation:isolate" viewBox="0 0 24 24" width="24" height="24"><path d=" M 6.811719 9.613737 L 6.811719 9.613737 Q 7.03093 9.613737 7.162456 9.745263 L 7.162456 9.745263 L 7.162456 9.745263 Q 7.293982 9.876789 7.293982 10.096 L 7.293982 10.096 L 7.293982 13.609632 L 7.293982 13.609632 Q 7.293982 13.828842 7.162456 13.9635 L 7.162456 13.9635 L 7.162456 13.9635 Q 7.03093 14.098158 6.811719 14.098158 L 6.811719 14.098158 L 6.811719 14.098158 Q 6.592509 14.098158 6.464114 13.966632 L 6.464114 13.966632 L 6.464114 13.966632 Q 6.335719 13.835105 6.335719 13.609632 L 6.335719 13.609632 L 6.335719 12.206684 L 4.300193 12.206684 L 4.300193 13.609632 L 4.300193 13.609632 Q 4.300193 13.828842 4.168667 13.9635 L 4.168667 13.9635 L 4.168667 13.9635 Q 4.03714 14.098158 3.824193 14.098158 L 3.824193 14.098158 L 3.824193 14.098158 Q 3.604982 14.098158 3.473456 13.966632 L 3.473456 13.966632 L 3.473456 13.966632 Q 3.34193 13.835105 3.34193 13.609632 L 3.34193 13.609632 L 3.34193 10.096 L 3.34193 10.096 Q 3.34193 9.876789 3.473456 9.745263 L 3.473456 9.745263 L 3.473456 9.745263 Q 3.604982 9.613737 3.824193 9.613737 L 3.824193 9.613737 L 3.824193 9.613737 Q 4.043404 9.613737 4.171798 9.745263 L 4.171798 9.745263 L 4.171798 9.745263 Q 4.300193 9.876789 4.300193 10.096 L 4.300193 10.096 L 4.300193 11.430053 L 6.335719 11.430053 L 6.335719 10.096 L 6.335719 10.096 Q 6.335719 9.876789 6.464114 9.745263 L 6.464114 9.745263 L 6.464114 9.745263 Q 6.592509 9.613737 6.811719 9.613737 L 6.811719 9.613737 L 6.811719 9.613737 Z  M 9.680246 14.091895 L 9.680246 14.091895 Q 9.461035 14.091895 9.326377 13.960368 L 9.326377 13.960368 L 9.326377 13.960368 Q 9.191719 13.828842 9.191719 13.609632 L 9.191719 13.609632 L 9.191719 10.440474 L 8.177088 10.440474 L 8.177088 10.440474 Q 7.713614 10.440474 7.713614 10.039632 L 7.713614 10.039632 L 7.713614 10.039632 Q 7.713614 9.645053 8.177088 9.645053 L 8.177088 9.645053 L 11.183404 9.645053 L 11.183404 9.645053 Q 11.646877 9.645053 11.646877 10.039632 L 11.646877 10.039632 L 11.646877 10.039632 Q 11.646877 10.440474 11.183404 10.440474 L 11.183404 10.440474 L 10.168772 10.440474 L 10.168772 13.609632 L 10.168772 13.609632 Q 10.168772 13.828842 10.037246 13.960368 L 10.037246 13.960368 L 10.037246 13.960368 Q 9.905719 14.091895 9.680246 14.091895 L 9.680246 14.091895 L 9.680246 14.091895 Z  M 15.987246 9.613737 L 15.987246 9.613737 Q 16.19393 9.613737 16.322325 9.748395 L 16.322325 9.748395 L 16.322325 9.748395 Q 16.450719 9.883053 16.450719 10.096 L 16.450719 10.096 L 16.450719 13.653474 L 16.450719 13.653474 Q 16.450719 13.860158 16.331719 13.979158 L 16.331719 13.979158 L 16.331719 13.979158 Q 16.212719 14.098158 16.018561 14.098158 L 16.018561 14.098158 L 16.018561 14.098158 Q 15.830667 14.098158 15.711667 13.979158 L 15.711667 13.979158 L 15.711667 13.979158 Q 15.592667 13.860158 15.592667 13.653474 L 15.592667 13.653474 L 15.592667 11.442579 L 14.703298 13.114842 L 14.703298 13.114842 Q 14.615614 13.277684 14.512272 13.352842 L 14.512272 13.352842 L 14.512272 13.352842 Q 14.40893 13.428 14.264877 13.428 L 14.264877 13.428 L 14.264877 13.428 Q 14.127088 13.428 14.020614 13.352842 L 14.020614 13.352842 L 14.020614 13.352842 Q 13.91414 13.277684 13.826456 13.114842 L 13.826456 13.114842 L 12.937088 11.473895 L 12.937088 13.653474 L 12.937088 13.653474 Q 12.937088 13.853895 12.818088 13.976026 L 12.818088 13.976026 L 12.818088 13.976026 Q 12.699088 14.098158 12.50493 14.098158 L 12.50493 14.098158 L 12.50493 14.098158 Q 12.317035 14.098158 12.198035 13.979158 L 12.198035 13.979158 L 12.198035 13.979158 Q 12.079035 13.860158 12.079035 13.653474 L 12.079035 13.653474 L 12.079035 10.096 L 12.079035 10.096 Q 12.079035 9.883053 12.20743 9.748395 L 12.20743 9.748395 L 12.20743 9.748395 Q 12.335825 9.613737 12.542509 9.613737 L 12.542509 9.613737 L 12.542509 9.613737 Q 12.84314 9.613737 12.999719 9.933158 L 12.999719 9.933158 L 14.27114 12.344474 L 15.536298 9.933158 L 15.536298 9.933158 Q 15.705404 9.613737 15.987246 9.613737 L 15.987246 9.613737 L 15.987246 9.613737 Z  M 17.797298 14.060579 L 17.797298 14.060579 Q 17.578088 14.060579 17.459088 13.941579 L 17.459088 13.941579 L 17.459088 13.941579 Q 17.340088 13.822579 17.340088 13.603368 L 17.340088 13.603368 L 17.340088 10.096 L 17.340088 10.096 Q 17.340088 9.876789 17.471614 9.745263 L 17.471614 9.745263 L 17.471614 9.745263 Q 17.60314 9.613737 17.828614 9.613737 L 17.828614 9.613737 L 17.828614 9.613737 Q 18.054088 9.613737 18.185614 9.745263 L 18.185614 9.745263 L 18.185614 9.745263 Q 18.31714 9.876789 18.31714 10.096 L 18.31714 10.096 L 18.31714 13.265158 L 19.920509 13.265158 L 19.920509 13.265158 Q 20.377719 13.265158 20.377719 13.666 L 20.377719 13.666 L 20.377719 13.666 Q 20.377719 14.060579 19.920509 14.060579 L 19.920509 14.060579 L 17.797298 14.060579 L 17.797298 14.060579 Z " fill-rule="evenodd" fill="rgb(119,20,245)"/></svg>