<?xml version="1.0" standalone="no"?><!-- Generator: Gravit.io --><svg xmlns="http://www.w3.org/2000/svg" xmlns:xlink="http://www.w3.org/1999/xlink" style="isolation:isolate" viewBox="0 0 24 24" width="24" height="24"><path d="M 8.3 5.5 L 16.1 5.5 C 16.81749 5.5 17.4 6.08251 17.4 6.8 L 17.4 17.2 C 17.4 17.91749 16.81749 18.5 16.1 18.5 L 8.3 18.5 C 7.58251 18.5 7 17.91749 7 17.2 L 7 6.8 C 7 6.08251 7.58251 5.5 8.3 5.5 Z" style="stroke:none;fill:#790AC3;stroke-miterlimit:10;"/><path d=" M 15.94397 17.7192 L 13.15157 17.7192 L 13.15157 17.1927 L 14.26697 17.1927 L 14.26697 16.0188 L 13.15157 16.0188 L 13.15157 15.4923 L 15.94397 15.4923 L 15.94397 16.0188 L 14.7662 16.0188 L 14.7662 17.1927 L 15.94397 17.1927 L 15.94397 17.7192 L 15.94397 17.7192 Z  M 15.94397 13.8114 L 15.94397 14.3379 L 13.6508 14.3379 L 13.6508 15.1179 L 13.15157 15.1179 L 13.15157 13.0314 L 13.6508 13.0314 L 13.6508 13.8114 L 15.94397 13.8114 L 15.94397 13.8114 Z  M 15.94397 12.657 L 13.15157 12.657 L 13.15157 12.1383 L 14.62967 11.2842 L 14.62967 11.253 L 13.15157 10.3989 L 13.15157 9.8763 L 15.94397 9.8763 L 15.94397 10.3989 L 14.56727 10.3989 L 14.09927 10.3677 L 14.09927 10.3989 L 15.35117 11.1087 L 15.35117 11.4246 L 14.09927 12.1383 L 14.09927 12.1695 L 14.56727 12.1383 L 15.94397 12.1383 L 15.94397 12.657 L 15.94397 12.657 Z  M 15.94397 9.3147 L 13.15157 9.3147 L 13.15157 8.7882 L 15.444739 8.7882 L 15.444739 7.6065 L 15.94397 7.6065 L 15.94397 9.3147 L 15.94397 9.3147 Z " fill="rgb(255,255,255)"/></svg>