<?xml version="1.0" standalone="no"?><!-- Generator: Gravit.io --><svg xmlns="http://www.w3.org/2000/svg" xmlns:xlink="http://www.w3.org/1999/xlink" style="isolation:isolate" viewBox="0 0 24 24" width="24" height="24"><path d=" M 7.767895 14.997368 L 7.767895 14.997368 Q 7.356316 15.015263 7.146053 14.872105 L 7.146053 14.872105 L 7.146053 14.872105 Q 6.935789 14.728947 6.935789 14.433684 L 6.935789 14.433684 L 6.935789 14.433684 Q 6.935789 14.165263 7.07 14.035526 L 7.07 14.035526 L 7.07 14.035526 Q 7.204211 13.905789 7.490526 13.887895 L 7.490526 13.887895 L 7.776842 13.87 L 7.776842 13.87 Q 8.421053 13.843158 8.421053 13.109474 L 8.421053 13.109474 L 8.421053 9.28 L 8.421053 9.28 Q 8.421053 8.966842 8.617895 8.778947 L 8.617895 8.778947 L 8.617895 8.778947 Q 8.814737 8.591053 9.127895 8.591053 L 9.127895 8.591053 L 9.127895 8.591053 Q 9.441053 8.591053 9.633421 8.778947 L 9.633421 8.778947 L 9.633421 8.778947 Q 9.825789 8.966842 9.825789 9.28 L 9.825789 9.28 L 9.825789 13.091579 L 9.825789 13.091579 Q 9.825789 14.863158 8.054211 14.979474 L 8.054211 14.979474 L 7.767895 14.997368 L 7.767895 14.997368 Z  M 13.351053 15.024211 L 13.351053 15.024211 Q 12.644211 15.024211 12.035789 14.858684 L 12.035789 14.858684 L 12.035789 14.858684 Q 11.427368 14.693158 11.042632 14.388947 L 11.042632 14.388947 L 11.042632 14.388947 Q 10.908421 14.290526 10.850263 14.178684 L 10.850263 14.178684 L 10.850263 14.178684 Q 10.792105 14.066842 10.792105 13.896842 L 10.792105 13.896842 L 10.792105 13.896842 Q 10.792105 13.673158 10.930789 13.503158 L 10.930789 13.503158 L 10.930789 13.503158 Q 11.069474 13.333158 11.248421 13.333158 L 11.248421 13.333158 L 11.248421 13.333158 Q 11.346842 13.333158 11.440789 13.364474 L 11.440789 13.364474 L 11.440789 13.364474 Q 11.534737 13.395789 11.668947 13.476316 L 11.668947 13.476316 L 11.668947 13.476316 Q 12.053684 13.717895 12.447368 13.829737 L 12.447368 13.829737 L 12.447368 13.829737 Q 12.841053 13.941579 13.315263 13.941579 L 13.315263 13.941579 L 13.315263 13.941579 Q 13.905789 13.941579 14.218947 13.744737 L 14.218947 13.744737 L 14.218947 13.744737 Q 14.532105 13.547895 14.532105 13.181053 L 14.532105 13.181053 L 14.532105 13.181053 Q 14.532105 12.903684 14.241316 12.733684 L 14.241316 12.733684 L 14.241316 12.733684 Q 13.950526 12.563684 13.207895 12.411579 L 13.207895 12.411579 L 13.207895 12.411579 Q 12.375789 12.241579 11.879211 12 L 11.879211 12 L 11.879211 12 Q 11.382632 11.758421 11.154474 11.400526 L 11.154474 11.400526 L 11.154474 11.400526 Q 10.926316 11.042632 10.926316 10.532632 L 10.926316 10.532632 L 10.926316 10.532632 Q 10.926316 9.968947 11.252895 9.517105 L 11.252895 9.517105 L 11.252895 9.517105 Q 11.579474 9.065263 12.156579 8.810263 L 12.156579 8.810263 L 12.156579 8.810263 Q 12.733684 8.555263 13.458421 8.555263 L 13.458421 8.555263 L 13.458421 8.555263 Q 14.728947 8.555263 15.552105 9.190526 L 15.552105 9.190526 L 15.552105 9.190526 Q 15.686316 9.297895 15.744474 9.409737 L 15.744474 9.409737 L 15.744474 9.409737 Q 15.802632 9.521579 15.802632 9.682632 L 15.802632 9.682632 L 15.802632 9.682632 Q 15.802632 9.906316 15.663947 10.076316 L 15.663947 10.076316 L 15.663947 10.076316 Q 15.525263 10.246316 15.346316 10.246316 L 15.346316 10.246316 L 15.346316 10.246316 Q 15.247895 10.246316 15.162895 10.219474 L 15.162895 10.219474 L 15.162895 10.219474 Q 15.077895 10.192632 14.925789 10.103158 L 14.925789 10.103158 L 14.925789 10.103158 Q 14.558947 9.870526 14.250263 9.754211 L 14.250263 9.754211 L 14.250263 9.754211 Q 13.941579 9.637895 13.467368 9.637895 L 13.467368 9.637895 L 13.467368 9.637895 Q 12.921579 9.637895 12.608421 9.848158 L 12.608421 9.848158 L 12.608421 9.848158 Q 12.295263 10.058421 12.295263 10.425263 L 12.295263 10.425263 L 12.295263 10.425263 Q 12.295263 10.64 12.416053 10.778684 L 12.416053 10.778684 L 12.416053 10.778684 Q 12.536842 10.917368 12.818684 11.024737 L 12.818684 11.024737 L 12.818684 11.024737 Q 13.100526 11.132105 13.619474 11.248421 L 13.619474 11.248421 L 13.619474 11.248421 Q 14.836316 11.516842 15.368684 11.937368 L 15.368684 11.937368 L 15.368684 11.937368 Q 15.901053 12.357895 15.901053 13.091579 L 15.901053 13.091579 L 15.901053 13.091579 Q 15.901053 13.664211 15.583421 14.102632 L 15.583421 14.102632 L 15.583421 14.102632 Q 15.265789 14.541053 14.688684 14.782632 L 14.688684 14.782632 L 14.688684 14.782632 Q 14.111579 15.024211 13.351053 15.024211 L 13.351053 15.024211 L 13.351053 15.024211 Z " fill-rule="evenodd" fill="rgb(245,59,20)"/></svg>