<?xml version="1.0" standalone="no"?><!-- Generator: Gravit.io --><svg xmlns="http://www.w3.org/2000/svg" xmlns:xlink="http://www.w3.org/1999/xlink" style="isolation:isolate" viewBox="0 0 200 300" width="200" height="300"><g><path d=" M 0 223 L 150 223 C 177.614237 223 200 245.385763 200 273 L 50 273 C 22.385763 273 0 250.614237 0 223 Z " fill="rgb(232,2,75)"/><path d=" M 100 0 C 155.228475 0 200 44.771525 200 100 C 200 155.228475 155.228475 200 100 200 C 44.771525 200 0 155.228475 0 100 C 0 44.771525 44.771525 0 100 0 L 100 0 Z " fill="none"/><path d=" M 100 50 C 72.429924 50 50 72.429924 50 100 C 50 127.570076 72.429924 150 100 150 C 127.570076 150 150 127.570076 150 100 C 150 72.429924 127.570076 50 100 50 Z  M 100 0 C 155.228455 0 200 44.771545 200 100 C 200 155.228455 155.228455 200 100 200 C 44.771545 200 0 155.228455 0 100 C 0 44.771545 44.771545 0 100 0 Z " fill="rgb(232,2,75)"/><path d=" M 100 50 L 100 0 L 200 0 C 200 27.614237 177.614237 50 150 50 L 100 50 Z " fill="rgb(232,2,75)"/></g></svg>