<svg width="200" height="200" viewBox="0 0 200 200" fill="none" xmlns="http://www.w3.org/2000/svg">
<rect width="200" height="200" rx="30" fill="url(#paint0_linear)"/>
<path d="M71.88 69.96C75.1867 69.96 78.0933 70.6267 80.6 71.96C83.1067 73.24 85.08 74.92 86.52 77V70.68H97.8V115.32C97.8 119.427 96.9733 123.08 95.32 126.28C93.6667 129.533 91.1867 132.093 87.88 133.96C84.5733 135.88 80.5733 136.84 75.88 136.84C69.5867 136.84 64.4133 135.373 60.36 132.44C56.36 129.507 54.0933 125.507 53.56 120.44H64.68C65.2667 122.467 66.52 124.067 68.44 125.24C70.4133 126.467 72.7867 127.08 75.56 127.08C78.8133 127.08 81.4533 126.093 83.48 124.12C85.5067 122.2 86.52 119.267 86.52 115.32V108.44C85.08 110.52 83.08 112.253 80.52 113.64C78.0133 115.027 75.1333 115.72 71.88 115.72C68.1467 115.72 64.7333 114.76 61.64 112.84C58.5467 110.92 56.0933 108.227 54.28 104.76C52.52 101.24 51.64 97.2133 51.64 92.68C51.64 88.2 52.52 84.2267 54.28 80.76C56.0933 77.2933 58.52 74.6267 61.56 72.76C64.6533 70.8933 68.0933 69.96 71.88 69.96ZM86.52 92.84C86.52 90.12 85.9867 87.8 84.92 85.88C83.8533 83.9067 82.4133 82.4133 80.6 81.4C78.7867 80.3333 76.84 79.8 74.76 79.8C72.68 79.8 70.76 80.3067 69 81.32C67.24 82.3333 65.8 83.8267 64.68 85.8C63.6133 87.72 63.08 90.0133 63.08 92.68C63.08 95.3467 63.6133 97.6933 64.68 99.72C65.8 101.693 67.24 103.213 69 104.28C70.8133 105.347 72.7333 105.88 74.76 105.88C76.84 105.88 78.7867 105.373 80.6 104.36C82.4133 103.293 83.8533 101.8 84.92 99.88C85.9867 97.9067 86.52 95.56 86.52 92.84ZM127.219 104.68L138.419 70.68H150.339L133.939 115H120.339L104.019 70.68H116.019L127.219 104.68Z" fill="white"/>
<defs>
<linearGradient id="paint0_linear" x1="93.0943" y1="14.1058" x2="227.678" y2="143.431" gradientUnits="userSpaceOnUse">
<stop stop-color="#FF5C00"/>
<stop offset="1" stop-color="#F00038"/>
</linearGradient>
</defs>
</svg>
