<svg xmlns="http://www.w3.org/2000/svg" xmlns:xlink="http://www.w3.org/1999/xlink" width="50.523" height="12.691" viewBox="0 0 50.523 12.691">
  <defs>
    <linearGradient id="linear-gradient" x1="0.142" y1="-0.041" x2="0.962" y2="1.553" gradientUnits="objectBoundingBox">
      <stop offset="0" stop-color="#fc364c"/>
      <stop offset="1" stop-color="#fcb900"/>
    </linearGradient>
  </defs>
  <g id="Grupo_4" data-name="Grupo 4" transform="translate(-191.568 -164.088)">
    <path id="Trazado_66" data-name="Trazado 66" d="M3.942,2.779A3.774,3.774,0,0,1,1.817,2.26a2.381,2.381,0,0,1-1-1.244l1.5-.365a1.833,1.833,0,0,0,.526.577,1.84,1.84,0,0,0,1.126.286,1.937,1.937,0,0,0,1.18-.342,1.279,1.279,0,0,0,.464-1.1V-1.274H5.531a2.407,2.407,0,0,1-.376.531A1.968,1.968,0,0,1,4.5-.286,2.439,2.439,0,0,1,3.49-.1,2.888,2.888,0,0,1,2.01-.487,2.708,2.708,0,0,1,.958-1.643a4.242,4.242,0,0,1-.39-1.925,4.5,4.5,0,0,1,.39-1.974A2.883,2.883,0,0,1,2.013-6.765a2.728,2.728,0,0,1,1.482-.418,2.229,2.229,0,0,1,1.032.21,2,2,0,0,1,.642.5,2.88,2.88,0,0,1,.362.552h.092V-7.091H7.271V.115A2.447,2.447,0,0,1,6.837,1.6a2.6,2.6,0,0,1-1.184.886A4.672,4.672,0,0,1,3.942,2.779Zm.014-4.192a1.453,1.453,0,0,0,1.233-.575,2.587,2.587,0,0,0,.434-1.59A2.773,2.773,0,0,0,5.194-5.2a1.417,1.417,0,0,0-1.237-.614,1.417,1.417,0,0,0-1.26.635,2.817,2.817,0,0,0-.425,1.6A2.623,2.623,0,0,0,2.7-2.006,1.452,1.452,0,0,0,3.956-1.413ZM8.988,0V-7.091h1.62v1.182h.074a1.764,1.764,0,0,1,.667-.951,1.837,1.837,0,0,1,1.083-.332q.138,0,.312.012a2.284,2.284,0,0,1,.289.035v1.537a1.839,1.839,0,0,0-.335-.067,3.388,3.388,0,0,0-.441-.03,1.594,1.594,0,0,0-1.143.432,1.457,1.457,0,0,0-.455,1.106V0Zm7.063.143A2.62,2.62,0,0,1,14.357-.4a1.916,1.916,0,0,1-.679-1.588,1.823,1.823,0,0,1,.385-1.24,2.206,2.206,0,0,1,1-.642,6.406,6.406,0,0,1,1.3-.275q.937-.1,1.346-.189t.409-.448V-4.81a1.046,1.046,0,0,0-.309-.808,1.266,1.266,0,0,0-.891-.286,1.587,1.587,0,0,0-.972.268A1.324,1.324,0,0,0,15.47-5l-1.56-.222a2.429,2.429,0,0,1,1.083-1.463,3.607,3.607,0,0,1,1.923-.494,4.4,4.4,0,0,1,1.016.12,2.9,2.9,0,0,1,.93.4,2.044,2.044,0,0,1,.679.748A2.43,2.43,0,0,1,19.8-4.746V0H18.189V-.974h-.055a2.061,2.061,0,0,1-.736.782A2.418,2.418,0,0,1,16.051.143Zm.434-1.228a1.642,1.642,0,0,0,1.2-.434,1.387,1.387,0,0,0,.443-1.025v-.836a1.013,1.013,0,0,1-.39.155q-.284.067-.6.113l-.54.078a2.422,2.422,0,0,0-.933.307.772.772,0,0,0-.374.709.8.8,0,0,0,.337.7A1.465,1.465,0,0,0,16.485-1.085Zm11.07-6.006L25.031,0H23.184L20.659-7.091h1.782l1.63,5.267h.074l1.634-5.267ZM28.71,0V-7.091h1.671V0Zm.84-8.1a.968.968,0,0,1-.686-.265A.844.844,0,0,1,28.581-9a.849.849,0,0,1,.284-.644.968.968,0,0,1,.686-.265.962.962,0,0,1,.681.265A.849.849,0,0,1,30.515-9a.844.844,0,0,1-.284.639A.962.962,0,0,1,29.55-8.1Zm6.089,1.006V-5.8h-1.4v3.665a.781.781,0,0,0,.222.662A.893.893,0,0,0,35-1.311a1.674,1.674,0,0,0,.289-.023q.132-.023.2-.042l.282,1.306a3.767,3.767,0,0,1-.381.1,3.178,3.178,0,0,1-.6.065A2.4,2.4,0,0,1,33.2-.365a1.748,1.748,0,0,1-.635-1.491V-5.8H31.563V-7.091h1.006v-1.7H34.24v1.7ZM40.057.138a3.433,3.433,0,0,1-1.8-.457A3.085,3.085,0,0,1,37.077-1.6a4.188,4.188,0,0,1-.418-1.918,4.2,4.2,0,0,1,.418-1.923,3.1,3.1,0,0,1,1.18-1.283,3.42,3.42,0,0,1,1.8-.459,3.432,3.432,0,0,1,1.8.459,3.08,3.08,0,0,1,1.18,1.283,4.218,4.218,0,0,1,.415,1.923A4.207,4.207,0,0,1,43.039-1.6,3.065,3.065,0,0,1,41.86-.319,3.446,3.446,0,0,1,40.057.138ZM40.066-1.2a1.437,1.437,0,0,0,.944-.309,1.856,1.856,0,0,0,.563-.838,3.5,3.5,0,0,0,.187-1.175,3.519,3.519,0,0,0-.187-1.18,1.888,1.888,0,0,0-.563-.843,1.424,1.424,0,0,0-.944-.314,1.449,1.449,0,0,0-.953.314,1.887,1.887,0,0,0-.57.843,3.48,3.48,0,0,0-.189,1.18,3.466,3.466,0,0,0,.189,1.175,1.856,1.856,0,0,0,.57.838A1.463,1.463,0,0,0,40.066-1.2Zm6.472-2.955V0H44.868V-7.091h1.6v1.2h.083a2.039,2.039,0,0,1,.782-.944,2.376,2.376,0,0,1,1.332-.353,2.331,2.331,0,0,1,1.766.7,2.722,2.722,0,0,1,.662,1.971V0H49.419V-4.256a1.588,1.588,0,0,0-.367-1.113,1.3,1.3,0,0,0-1.013-.4,1.458,1.458,0,0,0-1.08.422A1.619,1.619,0,0,0,46.539-4.155Z" transform="translate(191 174)" fill="url(#linear-gradient)"/>
    <path id="Trazado_73" data-name="Trazado 73" d="M3.942,2.779A3.774,3.774,0,0,1,1.817,2.26a2.381,2.381,0,0,1-1-1.244l1.5-.365a1.833,1.833,0,0,0,.526.577,1.84,1.84,0,0,0,1.126.286,1.937,1.937,0,0,0,1.18-.342,1.279,1.279,0,0,0,.464-1.1V-1.274H5.531a2.407,2.407,0,0,1-.376.531A1.968,1.968,0,0,1,4.5-.286,2.439,2.439,0,0,1,3.49-.1,2.888,2.888,0,0,1,2.01-.487,2.708,2.708,0,0,1,.958-1.643a4.242,4.242,0,0,1-.39-1.925,4.5,4.5,0,0,1,.39-1.974A2.883,2.883,0,0,1,2.013-6.765a2.728,2.728,0,0,1,1.482-.418,2.229,2.229,0,0,1,1.032.21,2,2,0,0,1,.642.5,2.88,2.88,0,0,1,.362.552h.092V-7.091H7.271V.115A2.447,2.447,0,0,1,6.837,1.6a2.6,2.6,0,0,1-1.184.886A4.672,4.672,0,0,1,3.942,2.779Zm.014-4.192a1.453,1.453,0,0,0,1.233-.575,2.587,2.587,0,0,0,.434-1.59A2.773,2.773,0,0,0,5.194-5.2a1.417,1.417,0,0,0-1.237-.614,1.417,1.417,0,0,0-1.26.635,2.817,2.817,0,0,0-.425,1.6A2.623,2.623,0,0,0,2.7-2.006,1.452,1.452,0,0,0,3.956-1.413ZM8.988,0V-7.091h1.62v1.182h.074a1.764,1.764,0,0,1,.667-.951,1.837,1.837,0,0,1,1.083-.332q.138,0,.312.012a2.284,2.284,0,0,1,.289.035v1.537a1.839,1.839,0,0,0-.335-.067,3.388,3.388,0,0,0-.441-.03,1.594,1.594,0,0,0-1.143.432,1.457,1.457,0,0,0-.455,1.106V0Zm7.063.143A2.62,2.62,0,0,1,14.357-.4a1.916,1.916,0,0,1-.679-1.588,1.823,1.823,0,0,1,.385-1.24,2.206,2.206,0,0,1,1-.642,6.406,6.406,0,0,1,1.3-.275q.937-.1,1.346-.189t.409-.448V-4.81a1.046,1.046,0,0,0-.309-.808,1.266,1.266,0,0,0-.891-.286,1.587,1.587,0,0,0-.972.268A1.324,1.324,0,0,0,15.47-5l-1.56-.222a2.429,2.429,0,0,1,1.083-1.463,3.607,3.607,0,0,1,1.923-.494,4.4,4.4,0,0,1,1.016.12,2.9,2.9,0,0,1,.93.4,2.044,2.044,0,0,1,.679.748A2.43,2.43,0,0,1,19.8-4.746V0H18.189V-.974h-.055a2.061,2.061,0,0,1-.736.782A2.418,2.418,0,0,1,16.051.143Zm.434-1.228a1.642,1.642,0,0,0,1.2-.434,1.387,1.387,0,0,0,.443-1.025v-.836a1.013,1.013,0,0,1-.39.155q-.284.067-.6.113l-.54.078a2.422,2.422,0,0,0-.933.307.772.772,0,0,0-.374.709.8.8,0,0,0,.337.7A1.465,1.465,0,0,0,16.485-1.085Zm11.07-6.006L25.031,0H23.184L20.659-7.091h1.782l1.63,5.267h.074l1.634-5.267ZM28.71,0V-7.091h1.671V0Zm.84-8.1a.968.968,0,0,1-.686-.265A.844.844,0,0,1,28.581-9a.849.849,0,0,1,.284-.644.968.968,0,0,1,.686-.265.962.962,0,0,1,.681.265A.849.849,0,0,1,30.515-9a.844.844,0,0,1-.284.639A.962.962,0,0,1,29.55-8.1Zm6.089,1.006V-5.8h-1.4v3.665a.781.781,0,0,0,.222.662A.893.893,0,0,0,35-1.311a1.674,1.674,0,0,0,.289-.023q.132-.023.2-.042l.282,1.306a3.767,3.767,0,0,1-.381.1,3.178,3.178,0,0,1-.6.065A2.4,2.4,0,0,1,33.2-.365a1.748,1.748,0,0,1-.635-1.491V-5.8H31.563V-7.091h1.006v-1.7H34.24v1.7ZM40.057.138a3.433,3.433,0,0,1-1.8-.457A3.085,3.085,0,0,1,37.077-1.6a4.188,4.188,0,0,1-.418-1.918,4.2,4.2,0,0,1,.418-1.923,3.1,3.1,0,0,1,1.18-1.283,3.42,3.42,0,0,1,1.8-.459,3.432,3.432,0,0,1,1.8.459,3.08,3.08,0,0,1,1.18,1.283,4.218,4.218,0,0,1,.415,1.923A4.207,4.207,0,0,1,43.039-1.6,3.065,3.065,0,0,1,41.86-.319,3.446,3.446,0,0,1,40.057.138ZM40.066-1.2a1.437,1.437,0,0,0,.944-.309,1.856,1.856,0,0,0,.563-.838,3.5,3.5,0,0,0,.187-1.175,3.519,3.519,0,0,0-.187-1.18,1.888,1.888,0,0,0-.563-.843,1.424,1.424,0,0,0-.944-.314,1.449,1.449,0,0,0-.953.314,1.887,1.887,0,0,0-.57.843,3.48,3.48,0,0,0-.189,1.18,3.466,3.466,0,0,0,.189,1.175,1.856,1.856,0,0,0,.57.838A1.463,1.463,0,0,0,40.066-1.2Zm6.472-2.955V0H44.868V-7.091h1.6v1.2h.083a2.039,2.039,0,0,1,.782-.944,2.376,2.376,0,0,1,1.332-.353,2.331,2.331,0,0,1,1.766.7,2.722,2.722,0,0,1,.662,1.971V0H49.419V-4.256a1.588,1.588,0,0,0-.367-1.113,1.3,1.3,0,0,0-1.013-.4,1.458,1.458,0,0,0-1.08.422A1.619,1.619,0,0,0,46.539-4.155Z" transform="translate(191 174)" fill="url(#linear-gradient)"/>
  </g>
</svg>
