<?xml version="1.0" standalone="no"?><!-- Generator: Gravit.io --><svg xmlns="http://www.w3.org/2000/svg" xmlns:xlink="http://www.w3.org/1999/xlink" style="isolation:isolate" viewBox="0 0 300 300" width="300" height="300"><linearGradient id="_lgradient_0" x1="0" y1="0.5" x2="1.0585679012345677" y2="0.8839012345679014" gradientTransform="matrix(300,0,0,300,0,0)" gradientUnits="userSpaceOnUse"><stop offset="0%" stop-opacity="1" style="stop-color:rgb(253,0,84)"/><stop offset="70.43478260869566%" stop-opacity="1" style="stop-color:rgb(153,0,255)"/></linearGradient><circle vector-effect="non-scaling-stroke" cx="150.00000000000006" cy="150.00000000000003" r="150.00000000000006" fill="url(#_lgradient_0)"/><clipPath id="_clipPath_wKUuJGt53eEZNF1JLIgxTfNoSej3JxT2"><circle vector-effect="non-scaling-stroke" cx="150.00000000000006" cy="150.00000000000003" r="150.00000000000006" fill="url(#_lgradient_0)"/></clipPath><g clip-path="url(#_clipPath_wKUuJGt53eEZNF1JLIgxTfNoSej3JxT2)"><path d=" M 71.12 228.88 C 61.02 218.8 53.08 206.78 47.76 193.54 C 42.61 180.67 39.98 166.95 40 153.1 C 40.01 138.58 42.85 124.19 48.36 110.75 C 54.11 96.73 62.59 84.01 73.31 73.31 C 84.01 62.59 96.73 54.11 110.75 48.36 C 124.19 42.85 138.58 40.01 153.1 40 C 166.95 39.98 180.67 42.61 193.53 47.75 C 206.77 53.07 218.8 61.02 228.88 71.12 C 238.98 81.2 246.93 93.23 252.25 106.47 C 257.39 119.33 260.02 133.05 260 146.9 C 259.99 161.42 257.15 175.81 251.64 189.25 C 245.89 203.27 237.41 215.99 226.69 226.69 C 215.99 237.41 203.27 245.89 189.25 251.64 C 175.81 257.15 161.42 259.99 146.9 260 C 133.05 260.02 119.33 257.39 106.47 252.25 C 93.23 246.93 81.2 238.98 71.12 228.88 Z  M 85.26 214.74 C 77.07 206.56 70.63 196.81 66.31 186.08 C 62.13 175.6 59.98 164.42 60 153.13 C 60.01 141.19 62.34 129.38 66.86 118.33 C 71.6 106.77 78.61 96.28 87.45 87.45 C 96.28 78.61 106.77 71.6 118.33 66.86 C 129.38 62.34 141.19 60.01 153.13 60 C 164.42 59.98 175.6 62.13 186.09 66.32 C 196.82 70.63 206.57 77.08 214.74 85.26 C 222.92 93.43 229.37 103.18 233.68 113.91 C 237.87 124.4 240.02 135.58 240 146.87 C 239.99 158.81 237.66 170.62 233.14 181.67 C 228.4 193.23 221.39 203.72 212.55 212.55 C 203.72 221.39 193.23 228.4 181.67 233.14 C 170.62 237.66 158.81 239.99 146.87 240 C 135.58 240.02 124.4 237.87 113.91 233.68 C 103.18 229.37 93.43 222.92 85.26 214.74 Z " fill-rule="evenodd" fill="rgb(255,255,255)"/></g><path d=" M 171.74 100.37 L 177.37 92.1 L 193.9 103.37 L 188.26 111.63 L 128.26 199.63 L 122.63 207.9 L 106.1 196.63 L 111.74 188.37 L 171.74 100.37 Z " fill="rgb(255,255,255)"/></svg>