<svg xmlns="http://www.w3.org/2000/svg" xmlns:xlink="http://www.w3.org/1999/xlink" width="89.138" height="89.138" viewBox="0 0 89.138 89.138">
  <defs>
    <clipPath id="clip-path">
      <rect width="89.138" height="89.138" fill="none"/>
    </clipPath>
  </defs>
  <g id="update" clip-path="url(#clip-path)">
    <g id="Elipse_5" data-name="Elipse 5" fill="none" stroke="#414141" stroke-width="10">
      <circle cx="44.569" cy="44.569" r="44.569" stroke="none"/>
      <circle cx="44.569" cy="44.569" r="39.569" fill="none"/>
    </g>
    <g id="Grupo_8" data-name="Grupo 8" transform="translate(28.554 74.404) rotate(-90)">
      <path id="Trazado_86" data-name="Trazado 86" d="M8.5,0H25.488a8.5,8.5,0,0,1,0,16.992H8.5A8.5,8.5,0,0,1,8.5,0Z" transform="translate(7.952 7.873)" fill="#414141" stroke="#fff" stroke-linecap="round" stroke-width="1"/>
      <path id="Polígono_2" data-name="Polígono 2" d="M18.293.707a1,1,0,0,1,1.414,0L36.293,17.293A1,1,0,0,1,35.586,19H2.414a1,1,0,0,1-.707-1.707Z" transform="translate(52.936 -3) rotate(90)" fill="#414141"/>
    </g>
  </g>
</svg>
