<svg xmlns="http://www.w3.org/2000/svg" xmlns:xlink="http://www.w3.org/1999/xlink" width="24" height="24" viewBox="0 0 24 24"><defs><clipPath id="b"><rect width="24" height="24"/></clipPath></defs><g id="a" clip-path="url(#b)"><path d="M16.042-106.477,8.9-113.615a1.053,1.053,0,0,0-1.489,0l-1.482,1.482,1.88,1.88a1.25,1.25,0,0,1,1.286.3,1.252,1.252,0,0,1,.3,1.294l1.812,1.812a1.251,1.251,0,0,1,1.294.3,1.252,1.252,0,0,1,0,1.772,1.253,1.253,0,0,1-1.772,0,1.253,1.253,0,0,1-.273-1.363l-1.69-1.69v4.448a1.263,1.263,0,0,1,.331.237,1.253,1.253,0,0,1,0,1.772,1.253,1.253,0,0,1-1.772,0,1.253,1.253,0,0,1,0-1.772,1.253,1.253,0,0,1,.41-.273v-4.489a1.239,1.239,0,0,1-.41-.273,1.252,1.252,0,0,1-.27-1.37L5.2-111.4.309-106.51a1.053,1.053,0,0,0,0,1.489l7.138,7.138a1.053,1.053,0,0,0,1.489,0l7.105-7.1a1.054,1.054,0,0,0,0-1.489" transform="translate(3.999 118.013)" fill="#ff5b5b"/></g></svg>