<?xml version="1.0" standalone="no"?><!-- Generator: Gravit.io --><svg xmlns="http://www.w3.org/2000/svg" xmlns:xlink="http://www.w3.org/1999/xlink" style="isolation:isolate" viewBox="0 0 500 500" width="500" height="500"><path d=" M 435.272926 432.980779 L 450.176242 447.969427 C 450.588815 447.584445 451.000834 447.19879 451.402102 446.800935 C 454.673208 443.501864 457.119553 439.475884 458.573392 435.05848 C 459.286298 432.905695 459.803561 430.683022 460.125053 428.432384 C 460.446588 426.111847 460.614331 423.777338 460.600338 421.442829 C 460.586388 418.01794 460.292796 414.593062 459.747633 411.210109 C 459.174484 407.533617 458.377664 403.89904 457.385159 400.320391 C 456.29479 396.392264 455.050629 392.506073 453.638768 388.68976 C 452.087064 384.496027 450.395604 380.372194 448.578337 376.290296 C 446.593284 371.85892 444.496417 367.46948 442.273744 363.14994 C 439.883328 358.466929 437.381055 353.853818 434.766968 349.282664 C 428.979596 339.175752 422.828795 329.292531 416.328517 319.632961 C 409.059362 308.813121 401.482708 298.202981 393.598469 287.816512 C 384.987332 276.437516 376.096637 265.28217 366.926344 254.364488 C 357.099031 242.622043 347.006111 231.11722 336.647584 219.850059 C 325.729902 207.939872 314.560563 196.281299 303.139654 184.860346 C 291.718701 173.439437 280.060128 162.270098 268.149941 151.352416 C 256.88278 140.993889 245.377957 130.900969 233.635512 121.073656 C 222.71783 111.903363 211.562484 103.012668 200.183488 94.401531 C 189.797019 86.517292 179.186879 78.940638 168.367039 71.671483 C 158.707469 65.171205 148.824248 59.020404 138.717336 53.233032 C 134.146182 50.618945 129.533071 48.116672 124.85006 45.726256 C 120.53052 43.503583 116.14108 41.406716 111.709704 39.421663 C 107.627806 37.604396 103.503973 35.912936 99.31024 34.361232 C 95.493927 32.949371 91.607736 31.70521 87.679609 30.614841 C 84.10096 29.622336 80.466383 28.825516 76.789891 28.252367 C 73.406938 27.707204 69.98206 27.413612 66.557171 27.399662 C 64.222662 27.385669 61.888153 27.553412 59.567616 27.874947 C 57.316978 28.196439 55.094305 28.713702 52.94152 29.426608 C 48.524116 30.880447 44.498136 33.326792 41.199065 36.597898 C 41.181649 36.61556 41.190351 36.606729 41.199065 36.597898 L 55.952524 51.488501 C 55.972233 51.462734 55.994513 51.439185 56.01692 51.415765 C 57.009436 50.479145 58.197669 49.76624 59.497727 49.346841 C 60.47626 49.025349 61.49674 48.787685 62.517209 48.633935 C 63.817267 48.4522 65.131307 48.368329 66.445336 48.368329 C 68.807809 48.382279 71.1563 48.578007 73.476838 48.955427 C 76.384485 49.416762 79.264178 50.045796 82.087965 50.828623 C 85.456935 51.75125 88.769978 52.827668 92.041085 54.029852 C 95.787498 55.41377 99.505946 56.923538 103.154495 58.55907 C 107.250364 60.39033 111.290327 62.333447 115.274382 64.374385 C 119.677793 66.638994 124.011326 68.987517 128.302902 71.433862 C 137.962473 76.969578 147.426337 82.854772 156.66653 89.075493 C 167.164835 96.120934 177.453462 103.47396 187.518417 111.106543 C 198.617835 119.521995 209.507553 128.203011 220.173621 137.149634 C 231.664452 146.767269 242.931612 156.664503 253.975123 166.799359 C 265.66166 177.50732 277.110556 188.480931 288.307795 199.692205 C 299.519069 210.889444 310.49268 222.33834 321.200641 234.024877 C 331.335497 245.068388 341.232731 256.335548 350.850366 267.826379 C 359.796989 278.492447 368.478005 289.382165 376.893457 300.481583 C 384.52604 310.546538 391.879066 320.835165 398.924507 331.33347 C 405.145228 340.573663 411.030422 350.037527 416.566138 359.697098 C 419.012483 363.988674 421.361006 368.322207 423.625615 372.725618 C 425.666553 376.709673 427.60967 380.749636 429.44093 384.845505 C 431.076462 388.494054 432.58623 392.212502 433.970148 395.958915 C 435.172332 399.230022 436.24875 402.543065 437.171377 405.912035 C 437.954204 408.735822 438.583238 411.615515 439.044573 414.523162 C 439.421993 416.8437 439.617721 419.192191 439.631671 421.554664 C 439.631671 422.868693 439.5478 424.182733 439.366065 425.482791 C 439.212315 426.50326 438.974651 427.52374 438.653159 428.502273 C 438.23376 429.802331 437.520855 430.990564 436.584235 431.98308 C 436.18237 432.362324 435.748381 432.704891 435.272926 432.980779 L 435.272926 432.980779 Z " id="Path" fill="rgb(134,2,186)"/><path d=" M 435.272915 50.41807 L 450.176223 35.42943 C 447.11789 32.746409 443.539785 30.703641 439.659657 29.426637 C 437.506862 28.7137 435.284188 28.196469 433.033529 27.874955 C 430.713034 27.553431 428.378504 27.385688 426.043974 27.39966 C 422.619117 27.413642 419.194218 27.707202 415.811297 28.252386 C 412.134784 28.825535 408.500207 29.622344 404.921558 30.61486 C 400.993431 31.705229 397.10724 32.949369 393.290927 34.361262 C 389.097194 35.912944 384.973381 37.604415 380.891462 39.421704 C 376.460065 41.406735 372.070647 43.503602 367.751106 45.726275 C 363.068096 48.116702 358.455006 50.618964 353.88381 53.233062 C 343.77694 59.020413 333.893698 65.171224 324.234127 71.671502 C 313.414309 78.940657 302.804169 86.517332 292.417657 94.40155 C 281.038683 103.012666 269.883337 111.903382 258.965654 121.073696 C 247.22321 130.90101 235.718386 140.993929 224.451226 151.352434 C 212.541039 162.270117 200.882444 173.439434 189.461513 184.860365 C 178.040582 196.281296 166.871264 207.939891 155.953582 219.850078 C 145.595077 231.117238 135.502157 242.622062 125.674844 254.364507 C 116.504529 265.282189 107.613814 276.437535 99.002697 287.816509 C 91.11848 298.203021 83.541804 308.813161 76.272649 319.63298 C 69.772371 329.29255 63.62156 339.175792 57.834209 349.282662 C 55.220111 353.853859 52.717849 358.466948 50.327423 363.149959 C 48.104749 367.469499 46.007882 371.858918 44.022851 376.290315 C 42.205563 380.372234 40.514091 384.496046 38.962409 388.689779 C 37.550516 392.506092 36.306376 396.392283 35.216007 400.32041 C 34.223491 403.899059 33.426683 407.533636 32.853534 411.210149 C 32.308349 414.59307 32.014789 418.01797 32.000807 421.442826 C 31.986836 423.777357 32.154578 426.111887 32.476103 428.432382 C 32.797616 430.683041 33.314847 432.905714 34.027785 435.030524 C 35.463797 439.450119 37.91486 443.466464 41.173469 446.774009 L 55.952526 431.910332 C 55.047031 430.947651 54.371332 429.785567 53.962 428.530246 C 53.626494 427.523748 53.388851 426.5033 53.23508 425.48281 C 53.053356 424.182763 52.969474 422.868723 52.969474 421.554683 C 52.983456 419.19221 53.179163 416.843729 53.556605 414.523192 C 54.017907 411.615513 54.646973 408.735819 55.4298 405.912054 C 56.352427 402.543084 57.428814 399.230041 58.631018 395.958934 C 60.014947 392.212543 61.524694 388.494094 63.160247 384.845524 C 64.991518 380.749655 66.934613 376.709671 68.975562 372.725659 C 71.240171 368.322204 73.588662 363.988714 76.035007 359.697117 C 81.570744 350.037546 87.455938 340.573703 93.67666 331.333489 C 100.722122 320.835163 108.075127 310.546557 115.707731 300.48158 C 124.123162 289.382163 132.804178 278.492466 141.750821 267.826398 C 151.368435 256.335567 161.265648 245.068407 171.400504 234.024896 C 182.108508 222.338358 193.082097 210.889484 204.29335 199.692203 C 215.490632 188.48095 226.939506 177.507361 238.626044 166.799356 C 249.669554 156.664501 260.936714 146.767288 272.427545 137.149674 C 283.093614 128.20303 293.98331 119.522014 305.082728 111.106583 C 315.147705 103.473979 325.43631 96.120975 335.934636 89.075512 C 345.174851 82.854791 354.638694 76.969597 364.298264 71.433859 C 368.589862 68.987515 372.923352 66.639024 377.326806 64.374415 C 381.310819 62.333466 385.350802 60.39037 389.446671 58.559099 C 393.095242 56.923546 396.81369 55.413799 400.560082 54.02987 C 403.831189 52.827666 407.144231 51.751279 410.513202 50.828653 C 413.336967 50.045826 416.21666 49.41676 419.124339 48.955457 C 421.444877 48.578015 423.793357 48.382308 426.155831 48.368326 C 427.46987 48.368326 428.78391 48.452208 430.083957 48.633933 C 431.104448 48.787704 432.124896 49.025346 433.10345 49.34687 C 433.877089 49.596429 434.611131 49.949949 435.272915 50.41807 L 435.272915 50.41807 Z " id="Path" fill="rgb(134,2,186)"/><circle vector-effect="non-scaling-stroke" cx="250.89507758857766" cy="245.71471506311357" r="165.33095182317413" id="Ellipse" fill="rgb(173,0,243)"/><path d=" M 435.272915 50.41807 L 450.176223 35.42943 C 450.588831 35.814408 451.000843 36.200062 451.402102 36.597917 C 454.673208 39.896988 457.119553 43.922969 458.573392 48.340373 C 459.286298 50.493157 459.803561 52.715831 460.125053 54.966468 C 460.446588 57.287006 460.614331 59.621515 460.600338 61.956024 C 460.586388 65.380912 460.292796 68.80579 459.747633 72.188743 C 459.174484 75.865235 458.377664 79.499812 457.385159 83.078461 C 456.29479 87.006588 455.050629 90.892779 453.638768 94.709092 C 452.087064 98.902825 450.395604 103.026659 448.578337 107.108557 C 446.593284 111.539932 444.496417 115.929372 442.273744 120.248912 C 439.883328 124.931923 437.381055 129.545034 434.766968 134.116188 C 428.979596 144.223101 422.828795 154.106321 416.328517 163.765892 C 409.059362 174.585731 401.482708 185.195872 393.598469 195.582341 C 384.987332 206.961336 376.096637 218.116682 366.926344 229.034365 C 357.099031 240.776809 347.006111 252.281633 336.647584 263.548793 C 325.729902 275.45898 314.560563 287.117554 303.139654 298.538506 C 291.718701 309.959416 280.060128 321.128755 268.149941 332.046437 C 256.88278 342.404963 245.377957 352.497883 233.635512 362.325197 C 222.71783 371.49549 211.562484 380.386184 200.183488 388.997322 C 189.797019 396.881561 179.186879 404.458215 168.367039 411.72737 C 158.707469 418.227648 148.824248 424.378448 138.717336 430.165821 C 134.146182 432.779907 129.533071 435.28218 124.85006 437.672596 C 120.53052 439.89527 116.14108 441.992136 111.709704 443.977189 C 107.627806 445.794456 103.503973 447.485917 99.31024 449.03762 C 95.493927 450.449482 91.607736 451.693643 87.679609 452.784012 C 84.10096 453.776517 80.466383 454.573336 76.789891 455.146485 C 73.406938 455.691648 69.98206 455.98524 66.557171 455.99919 C 64.222662 456.013183 61.888153 455.845441 59.567616 455.523906 C 57.316978 455.202413 55.094305 454.685151 52.94152 453.972245 C 48.524116 452.518405 44.498136 450.072061 41.199065 446.800954 C 41.181647 446.783302 41.190353 446.792131 41.199065 446.800954 L 55.952526 431.910332 C 55.972231 431.936136 55.994508 431.959672 56.01692 431.983088 C 57.009436 432.919707 58.197669 433.632613 59.497727 434.052012 C 60.47626 434.373504 61.49674 434.611168 62.517209 434.764917 C 63.817267 434.946653 65.131307 435.030524 66.445336 435.030524 C 68.807809 435.016574 71.1563 434.820846 73.476838 434.443425 C 76.384485 433.982091 79.264178 433.353056 82.087965 432.570229 C 85.456935 431.647603 88.769978 430.571184 92.041085 429.369001 C 95.787498 427.985083 99.505946 426.475315 103.154495 424.839783 C 107.250364 423.008523 111.290327 421.065406 115.274382 419.024467 C 119.677793 416.759858 124.011326 414.411335 128.302902 411.964991 C 137.962473 406.429275 147.426337 400.544081 156.66653 394.323359 C 167.164835 387.277918 177.453462 379.924892 187.518417 372.29231 C 198.617835 363.876857 209.507553 355.195841 220.173621 346.249219 C 231.664452 336.631584 242.931612 326.734349 253.975123 316.599494 C 265.66166 305.891532 277.110556 294.917922 288.307795 283.706647 C 299.519069 272.509408 310.49268 261.060513 321.200641 249.373975 C 331.335497 238.330465 341.232731 227.063305 350.850366 215.572474 C 359.796989 204.906405 368.478005 194.016687 376.893457 182.91727 C 384.52604 172.852314 391.879066 162.563687 398.924507 152.065383 C 405.145228 142.82519 411.030422 133.361325 416.566138 123.701755 C 419.012483 119.410179 421.361006 115.076646 423.625615 110.673234 C 425.666553 106.689179 427.60967 102.649217 429.44093 98.553348 C 431.076462 94.904799 432.58623 91.18635 433.970148 87.439937 C 435.172332 84.16883 436.24875 80.855788 437.171377 77.486817 C 437.954204 74.663031 438.583238 71.783337 439.044573 68.87569 C 439.421993 66.555153 439.617721 64.206662 439.631671 61.844188 C 439.631671 60.530159 439.5478 59.216119 439.366065 57.916062 C 439.212315 56.895593 438.974651 55.875113 438.653159 54.896579 C 438.23376 53.596521 437.520855 52.408288 436.584235 51.415773 C 436.182355 51.03653 435.748384 50.693958 435.272915 50.41807 L 435.272915 50.41807 Z " id="Path" fill="rgb(134,2,186)"/><path d=" M 435.272926 432.980779 L 450.176242 447.969427 C 447.117885 450.652443 443.53979 452.695216 439.659657 453.972215 C 437.506862 454.685153 435.284188 455.202384 433.033529 455.523897 C 430.713034 455.845422 428.378504 456.013164 426.043974 455.999193 C 422.619117 455.985211 419.194218 455.691651 415.811297 455.146466 C 412.134784 454.573317 408.500207 453.776509 404.921558 452.783993 C 400.993431 451.693624 397.10724 450.449484 393.290927 449.037591 C 389.097194 447.485909 384.973381 445.794437 380.891462 443.977149 C 376.460065 441.992118 372.070647 439.895251 367.751106 437.672577 C 363.068096 435.282151 358.455006 432.779889 353.88381 430.165791 C 343.77694 424.37844 333.893698 418.227629 324.234127 411.727351 C 313.414309 404.458196 302.804169 396.88152 292.417657 388.997303 C 281.038683 380.386186 269.883337 371.495471 258.965654 362.325156 C 247.22321 352.497843 235.718386 342.404923 224.451226 332.046418 C 212.541039 321.128736 200.882444 309.959418 189.461513 298.538487 C 178.040582 287.117556 166.871264 275.458961 155.953582 263.548774 C 145.595077 252.281614 135.502157 240.77679 125.674844 229.034346 C 116.504529 218.116663 107.613814 206.961317 99.002697 195.582343 C 91.11848 185.195831 83.541804 174.585691 76.272649 163.765873 C 69.772371 154.106302 63.62156 144.22306 57.834209 134.11619 C 55.220111 129.544994 52.717849 124.931904 50.327423 120.248894 C 48.104749 115.929353 46.007882 111.539935 44.022851 107.108538 C 42.205563 103.026619 40.514091 98.902806 38.962409 94.709073 C 37.550516 90.89276 36.306376 87.006569 35.216007 83.078442 C 34.223491 79.499793 33.426683 75.865216 32.853534 72.188703 C 32.308349 68.805782 32.014789 65.380883 32.000807 61.956026 C 31.986836 59.621496 32.154578 57.286966 32.476103 54.966471 C 32.797616 52.715812 33.314847 50.493138 34.027785 48.368329 C 35.463792 43.948749 37.914861 39.932399 41.173468 36.62486 L 55.952524 51.488501 C 55.047026 52.451186 54.371331 53.613268 53.962 54.868607 C 53.626494 55.875104 53.388851 56.895552 53.23508 57.916043 C 53.053356 59.21609 52.969474 60.53013 52.969474 61.844169 C 52.983456 64.206643 53.179163 66.555123 53.556605 68.875661 C 54.017907 71.78334 54.646973 74.663033 55.4298 77.486798 C 56.352427 80.855769 57.428814 84.168811 58.631018 87.439918 C 60.014947 91.18631 61.524694 94.904758 63.160247 98.553329 C 64.991518 102.649198 66.934613 106.689181 68.975562 110.673194 C 71.240171 115.076648 73.588662 119.410138 76.035007 123.701736 C 81.570744 133.361306 87.455938 142.825149 93.67666 152.065364 C 100.722122 162.56369 108.075127 172.852295 115.707731 182.917272 C 124.123162 194.01669 132.804178 204.906386 141.750821 215.572455 C 151.368435 227.063286 161.265648 238.330446 171.400504 249.373956 C 182.108508 261.060494 193.082097 272.509368 204.29335 283.70665 C 215.490632 294.917903 226.939506 305.891492 238.626044 316.599496 C 249.669554 326.734352 260.936714 336.631565 272.427545 346.249179 C 283.093614 355.195822 293.98331 363.876838 305.082728 372.292269 C 315.147705 379.924873 325.43631 387.277878 335.934636 394.32334 C 345.174851 400.544062 354.638694 406.429256 364.298264 411.964993 C 368.589862 414.411338 372.923352 416.759829 377.326806 419.024438 C 381.310819 421.065387 385.350802 423.008482 389.446671 424.839753 C 393.095242 426.475306 396.81369 427.985053 400.560082 429.368982 C 403.831189 430.571186 407.144231 431.647573 410.513202 432.5702 C 413.336967 433.353027 416.21666 433.982093 419.124339 434.443395 C 421.444877 434.820837 423.793357 435.016544 426.155831 435.030526 C 427.46987 435.030526 428.78391 434.946644 430.083957 434.76492 C 431.104448 434.611149 432.124896 434.373506 433.10345 434.051982 C 433.877105 433.802427 434.611128 433.448907 435.272926 432.980779 L 435.272926 432.980779 Z " id="Path" fill="rgb(134,2,186)"/></svg>