<?xml version="1.0" standalone="no"?><!-- Generator: Gravit.io --><svg xmlns="http://www.w3.org/2000/svg" xmlns:xlink="http://www.w3.org/1999/xlink" style="isolation:isolate" viewBox="0 0 24 24" width="24" height="24"><path d=" M 4.847416 4.610795 L 10.652584 4.610795 C 11.396243 4.610795 12 5.214552 12 5.958211 L 12 17.172471 C 12 17.91613 11.396243 18.519886 10.652584 18.519886 L 4.847416 18.519886 C 4.103757 18.519886 3.5 17.91613 3.5 17.172471 L 3.5 5.958211 C 3.5 5.214552 4.103757 4.610795 4.847416 4.610795 Z " fill="rgb(247,215,112)"/><path d=" M 3.5 7.315341 L 18.724624 7.315341 C 19.704481 7.315341 20.5 8.11086 20.5 9.090717 L 20.5 17.613828 C 20.5 18.593685 19.704481 19.389205 18.724624 19.389205 L 5.275376 19.389205 C 4.295519 19.389205 3.5 18.593685 3.5 17.613828 L 3.5 7.315341 Z " fill="rgb(255,233,160)"/><path d=" M 20.5 12 L 20.5 17.696657 C 20.5 18.630798 19.741594 19.389204 18.807451 19.389204 L 5.192548 19.389204 C 4.258405 19.389204 3.5 18.630798 3.5 17.696657 L 3.5 12 L 20.5 12 L 20.5 12 Z " fill="rgb(255,195,0)"/></svg>