<svg width="423" height="107" viewBox="0 0 423 107" fill="none" xmlns="http://www.w3.org/2000/svg">
<path d="M25.6 22.7C29.7333 22.7 33.3667 23.5333 36.5 25.2C39.6333 26.8 42.1 28.9 43.9 31.5V23.6H58V79.4C58 84.5333 56.9667 89.1 54.9 93.1C52.8333 97.1667 49.7333 100.367 45.6 102.7C41.4667 105.1 36.4667 106.3 30.6 106.3C22.7333 106.3 16.2667 104.467 11.2 100.8C6.2 97.1333 3.36667 92.1333 2.7 85.8H16.6C17.3333 88.3333 18.9 90.3333 21.3 91.8C23.7667 93.3333 26.7333 94.1 30.2 94.1C34.2667 94.1 37.5667 92.8667 40.1 90.4C42.6333 88 43.9 84.3333 43.9 79.4V70.8C42.1 73.4 39.6 75.5667 36.4 77.3C33.2667 79.0333 29.6667 79.9 25.6 79.9C20.9333 79.9 16.6667 78.7 12.8 76.3C8.93333 73.9 5.86667 70.5333 3.6 66.2C1.4 61.8 0.3 56.7667 0.3 51.1C0.3 45.5 1.4 40.5333 3.6 36.2C5.86667 31.8667 8.9 28.5333 12.7 26.2C16.5667 23.8667 20.8667 22.7 25.6 22.7ZM43.9 51.3C43.9 47.9 43.2333 45 41.9 42.6C40.5667 40.1333 38.7667 38.2667 36.5 37C34.2333 35.6667 31.8 35 29.2 35C26.6 35 24.2 35.6333 22 36.9C19.8 38.1667 18 40.0333 16.6 42.5C15.2667 44.9 14.6 47.7667 14.6 51.1C14.6 54.4333 15.2667 57.3667 16.6 59.9C18 62.3667 19.8 64.2667 22 65.6C24.2667 66.9333 26.6667 67.6 29.2 67.6C31.8 67.6 34.2333 66.9667 36.5 65.7C38.7667 64.3667 40.5667 62.5 41.9 60.1C43.2333 57.6333 43.9 54.7 43.9 51.3ZM85.6734 32.2C87.4734 29.2667 89.8068 26.9667 92.6734 25.3C95.6068 23.6333 98.9401 22.8 102.673 22.8V37.5H98.9734C94.5734 37.5 91.2401 38.5333 88.9734 40.6C86.7734 42.6667 85.6734 46.2667 85.6734 51.4V79H71.6734V23.6H85.6734V32.2ZM108.503 51.1C108.503 45.5 109.603 40.5333 111.803 36.2C114.07 31.8667 117.103 28.5333 120.903 26.2C124.77 23.8667 129.07 22.7 133.803 22.7C137.936 22.7 141.536 23.5333 144.603 25.2C147.736 26.8667 150.236 28.9667 152.103 31.5V23.6H166.203V79H152.103V70.9C150.303 73.5 147.803 75.6667 144.603 77.4C141.47 79.0667 137.836 79.9 133.703 79.9C129.036 79.9 124.77 78.7 120.903 76.3C117.103 73.9 114.07 70.5333 111.803 66.2C109.603 61.8 108.503 56.7667 108.503 51.1ZM152.103 51.3C152.103 47.9 151.436 45 150.103 42.6C148.77 40.1333 146.97 38.2667 144.703 37C142.436 35.6667 140.003 35 137.403 35C134.803 35 132.403 35.6333 130.203 36.9C128.003 38.1667 126.203 40.0333 124.803 42.5C123.47 44.9 122.803 47.7667 122.803 51.1C122.803 54.4333 123.47 57.3667 124.803 59.9C126.203 62.3667 128.003 64.2667 130.203 65.6C132.47 66.9333 134.87 67.6 137.403 67.6C140.003 67.6 142.436 66.9667 144.703 65.7C146.97 64.3667 148.77 62.5 150.103 60.1C151.436 57.6333 152.103 54.7 152.103 51.3ZM202.977 66.1L216.977 23.6H231.877L211.377 79H194.377L173.977 23.6H188.977L202.977 66.1ZM246.84 17C244.373 17 242.307 16.2333 240.64 14.7C239.04 13.1 238.24 11.1333 238.24 8.8C238.24 6.46666 239.04 4.53333 240.64 2.99999C242.307 1.4 244.373 0.599996 246.84 0.599996C249.307 0.599996 251.34 1.4 252.94 2.99999C254.607 4.53333 255.44 6.46666 255.44 8.8C255.44 11.1333 254.607 13.1 252.94 14.7C251.34 16.2333 249.307 17 246.84 17ZM253.74 23.6V79H239.74V23.6H253.74ZM283.872 35.1V61.9C283.872 63.7667 284.305 65.1333 285.172 66C286.105 66.8 287.639 67.2 289.772 67.2H296.272V79H287.472C275.672 79 269.772 73.2667 269.772 61.8V35.1H263.172V23.6H269.772V9.9H283.872V23.6H296.272V35.1H283.872ZM330.941 79.9C325.608 79.9 320.808 78.7333 316.541 76.4C312.275 74 308.908 70.6333 306.441 66.3C304.041 61.9667 302.841 56.9667 302.841 51.3C302.841 45.6333 304.075 40.6333 306.541 36.3C309.075 31.9667 312.508 28.6333 316.841 26.3C321.175 23.9 326.008 22.7 331.341 22.7C336.675 22.7 341.508 23.9 345.841 26.3C350.175 28.6333 353.575 31.9667 356.041 36.3C358.575 40.6333 359.841 45.6333 359.841 51.3C359.841 56.9667 358.541 61.9667 355.941 66.3C353.408 70.6333 349.941 74 345.541 76.4C341.208 78.7333 336.341 79.9 330.941 79.9ZM330.941 67.7C333.475 67.7 335.841 67.1 338.041 65.9C340.308 64.6333 342.108 62.7667 343.441 60.3C344.775 57.8333 345.441 54.8333 345.441 51.3C345.441 46.0333 344.041 42 341.241 39.2C338.508 36.3333 335.141 34.9 331.141 34.9C327.141 34.9 323.775 36.3333 321.041 39.2C318.375 42 317.041 46.0333 317.041 51.3C317.041 56.5667 318.341 60.6333 320.941 63.5C323.608 66.3 326.941 67.7 330.941 67.7ZM400.811 22.8C407.411 22.8 412.744 24.9 416.811 29.1C420.878 33.2333 422.911 39.0333 422.911 46.5V79H408.911V48.4C408.911 44 407.811 40.6333 405.611 38.3C403.411 35.9 400.411 34.7 396.611 34.7C392.744 34.7 389.678 35.9 387.411 38.3C385.211 40.6333 384.111 44 384.111 48.4V79H370.111V23.6H384.111V30.5C385.978 28.1 388.344 26.2333 391.211 24.9C394.144 23.5 397.344 22.8 400.811 22.8Z" fill="url(#paint0_linear)"/>
<defs>
<linearGradient id="paint0_linear" x1="193" y1="-31" x2="244.5" y2="208.5" gradientUnits="userSpaceOnUse">
<stop stop-color="#FF0048"/>
<stop offset="1" stop-color="#FF7A00"/>
</linearGradient>
</defs>
</svg>
