<svg width="1300" height="1300" viewBox="0 0 1300 1300" fill="none" xmlns="http://www.w3.org/2000/svg">
<path d="M363.347 1036.93C298.628 1036.93 247.776 1023.48 210.792 996.591C177.196 974.33 151.74 940.188 138.731 899.945L246.726 871.627C256.195 889.33 269.076 904.617 284.493 916.449C308.514 933.113 336.875 940.91 365.332 938.674C395.474 940.013 425.201 930.704 450.026 912.152C461.614 901.891 470.707 888.718 476.512 873.78C482.316 858.842 484.656 842.595 483.327 826.454V722.103H477.316C470.086 737.134 461.002 751.032 450.312 763.414C437.135 778.568 421.238 790.65 403.595 798.92C380.572 809.248 355.776 814.135 330.867 813.255C293.634 813.769 256.961 803.416 224.704 783.284C191.911 762.033 165.637 730.786 149.17 693.454C129.152 646.658 119.563 595.429 121.174 543.889C119.704 491.157 129.275 438.748 149.17 390.586C165.514 351.759 191.766 318.794 224.837 295.572C256.674 273.926 293.596 262.66 331.191 263.122C356.723 262.083 382.113 267.678 405.236 279.44C422.915 288.902 438.599 302.214 451.305 318.54C461.462 331.688 470.189 346.055 477.316 361.359H483.938V270.269H602.257V830.027C603.663 871.086 592.736 911.533 571.113 945.304C549.548 976.68 520.024 1000.6 486.133 1014.15C446.878 1029.98 405.231 1037.7 363.347 1036.93V1036.93ZM364.34 711.342C381.329 712.273 398.27 708.693 413.688 700.913C429.105 693.133 442.531 681.389 452.793 666.706C475.346 630.305 486.284 586.921 483.938 543.166C485.911 498.781 475.152 454.822 453.137 417.314C443.324 401.826 430.013 389.312 414.471 380.964C398.928 372.617 381.67 368.711 364.34 369.621C346.6 368.575 328.916 372.576 313.049 381.226C297.182 389.877 283.685 402.874 273.902 418.925C252.459 456.095 241.821 499.378 243.368 543.166C241.406 586.373 252.201 629.135 274.188 665.26C284.462 680.481 298.095 692.673 313.843 700.723C329.592 708.773 346.952 712.424 364.34 711.342V711.342ZM1180 270.29L998.704 821.063H866.263L684.967 270.29H812.828L929.773 679.429H935.079L1052.46 270.29H1180Z" fill="url(#paint0_linear)"/>
<defs>
<linearGradient id="paint0_linear" x1="254.434" y1="185.602" x2="778.799" y2="1194.82" gradientUnits="userSpaceOnUse">
<stop stop-color="#FF006F"/>
<stop offset="1" stop-color="#E6BA08"/>
</linearGradient>
</defs>
</svg>
