<svg xmlns="http://www.w3.org/2000/svg" xmlns:xlink="http://www.w3.org/1999/xlink" width="111.903" height="111.903" viewBox="0 0 111.903 111.903">
  <defs>
    <linearGradient id="linear-gradient" x1="0.126" y1="-0.1" x2="0.908" y2="1" gradientUnits="objectBoundingBox">
      <stop offset="0" stop-color="#ff006f"/>
      <stop offset="1" stop-color="#e6ba08"/>
    </linearGradient>
  </defs>
  <g id="Grupo_7" data-name="Grupo 7" transform="translate(-266.048 214.952)">
    <rect id="Rect치ngulo_55" data-name="Rect치ngulo 55" width="110" height="110" transform="matrix(1, -0.017, 0.017, 1, 266.048, -213.032)" fill="#fff"/>
    <g id="Grupo_6" data-name="Grupo 6" transform="translate(340 -187.132)">
      <rect id="Rect치ngulo_54" data-name="Rect치ngulo 54" width="78.655" height="67.185" transform="translate(-57 -5)" fill="none"/>
      <path id="Trazado_84" data-name="Trazado 84" d="M13.258,30.28q-5.087,0-7.994-1.953a8.953,8.953,0,0,1-3.776-4.679l5.659-1.371a6.894,6.894,0,0,0,1.979,2.17,6.921,6.921,0,0,0,4.236,1.076A7.285,7.285,0,0,0,17.8,24.239a4.809,4.809,0,0,0,1.745-4.149V15.038H19.23a9.051,9.051,0,0,1-1.415,2,7.4,7.4,0,0,1-2.448,1.719,9.172,9.172,0,0,1-3.811.694A10.859,10.859,0,0,1,5.993,18a10.182,10.182,0,0,1-3.958-4.349A15.951,15.951,0,0,1,.568,6.41,16.933,16.933,0,0,1,2.035-1.012,10.841,10.841,0,0,1,6-5.612a10.258,10.258,0,0,1,5.573-1.571,8.382,8.382,0,0,1,3.88.79A7.507,7.507,0,0,1,17.867-4.5,10.831,10.831,0,0,1,19.23-2.427h.347v-4.41h6.2v27.1a9.2,9.2,0,0,1-1.632,5.581,9.769,9.769,0,0,1-4.453,3.333A17.571,17.571,0,0,1,13.258,30.28Zm.052-15.763a5.465,5.465,0,0,0,4.635-2.161,9.727,9.727,0,0,0,1.632-5.981A10.428,10.428,0,0,0,17.963.282,5.329,5.329,0,0,0,13.31-2.027,5.33,5.33,0,0,0,8.571.36a10.593,10.593,0,0,0-1.6,6.015,9.865,9.865,0,0,0,1.615,5.911A5.462,5.462,0,0,0,13.31,14.517ZM56.051-6.836l-9.5,26.665H39.611l-9.5-26.665h6.7l6.128,19.808h.278L49.368-6.836Z" transform="translate(-48.786 16.568)" fill="url(#linear-gradient)"/>
    </g>
  </g>
</svg>
