<svg width="45" height="45" viewBox="0 0 45 45" fill="none" xmlns="http://www.w3.org/2000/svg">
<path d="M7.13115 8.41929H19.2795C21.0736 8.50358 22.8028 9.11609 24.25 10.1799L30.4616 15.2697H4.30125V11.1441C4.30783 10.7793 4.38628 10.4193 4.53211 10.0848C4.67795 9.75036 4.88831 9.44793 5.15116 9.19484C5.414 8.94176 5.72418 8.74299 6.06393 8.60991C6.40368 8.47683 6.76634 8.41206 7.13115 8.41929Z" fill="#FFE681"/>
<path d="M4.30125 13.3292H37.1705C38.2348 13.2848 39.2732 13.6641 40.0583 14.384C40.8433 15.1039 41.311 16.1057 41.3587 17.1698V33.5872C41.311 34.6513 40.8433 35.6531 40.0583 36.373C39.2732 37.0929 38.2348 37.4722 37.1705 37.4278H8.4895C7.42526 37.4722 6.38681 37.0929 5.60174 36.373C4.81667 35.6531 4.34901 34.6513 4.30125 33.5872V13.3292Z" fill="#EFBB14"/>
</svg>