<svg width="45" height="45" viewBox="0 0 45 45" fill="none" xmlns="http://www.w3.org/2000/svg">
<path d="M4.64249 12.5396H35.538C36.4524 12.4974 37.3447 12.8559 38.0198 13.5368C38.6949 14.2177 39.0977 15.1655 39.1402 16.1728V33.6068C39.0973 34.6137 38.6942 35.561 38.0192 36.2414C37.3442 36.9219 36.4521 37.2801 35.538 37.2379H8.24471C7.33063 37.2801 6.43856 36.9219 5.76354 36.2414C5.08852 35.561 4.68546 34.6137 4.64249 33.6068V12.5396Z" fill="#FFE681"/>
<path d="M7.56711 8.42251H20.1566C21.997 8.48956 23.7814 9.03021 25.3119 9.98446L31.7712 14.5278H4.64249V10.8494C4.68735 10.1673 5.01998 9.52938 5.56785 9.07476C6.11571 8.62013 6.83437 8.38568 7.56711 8.42251Z" fill="#FFE681"/>
<path d="M40.9148 16.523L37.2341 31.572C37.1685 32.5588 36.8265 33.4702 36.282 34.1095C35.7375 34.7487 35.0341 35.0646 34.3235 34.989H10.9105C10.1987 35.0645 9.49421 34.7471 8.94947 34.1055C8.40473 33.4639 8.06363 32.5497 8 31.5609L11.6807 16.512C11.9329 15.7567 12.336 15.1183 12.8419 14.6729C13.3478 14.2276 13.9352 13.994 14.5339 14.0001H39.2964C40.5313 14.0001 41.2585 15.131 40.9148 16.523Z" fill="#C0970F"/>
<path d="M42.9732 19.731L38.6869 33.9926C38.6105 34.9278 38.2123 35.7915 37.5782 36.3973C36.944 37.0031 36.1249 37.3025 35.2974 37.2308H8.03191C7.20302 37.3024 6.38256 37.0016 5.74819 36.3935C5.11382 35.7855 4.71658 34.9192 4.64249 33.9821L8.92884 19.7205C9.22253 19.0048 9.69196 18.3998 10.2811 17.9777C10.8703 17.5556 11.5543 17.3343 12.2516 17.3401H41.0886C42.5266 17.3401 43.3735 18.4118 42.9732 19.731Z" fill="#EFBB14"/>
</svg>