<svg width="45" height="45" viewBox="0 0 45 45" fill="none" xmlns="http://www.w3.org/2000/svg">
<path d="M10 11C10 9.89543 10.8954 9 12 9H24.7568L36 20.2432V35.1081C36 36.2127 35.1046 37.1081 34 37.1081H12C10.8954 37.1081 10 36.2127 10 35.1081V11Z" fill="#FFCF24"/>
<path d="M18.3793 21.9091H21.1151V31.0369C21.1151 31.8807 20.9254 32.6136 20.5462 33.2358C20.1712 33.858 19.6491 34.3374 18.9801 34.674C18.3111 35.0107 17.5334 35.179 16.647 35.179C15.8587 35.179 15.1428 35.0405 14.4993 34.7635C13.8601 34.4822 13.353 34.0561 12.978 33.4851C12.603 32.9098 12.4176 32.1875 12.4219 31.3182H15.1768C15.1854 31.6634 15.2557 31.9595 15.3878 32.2067C15.5241 32.4496 15.7095 32.6371 15.9439 32.7692C16.1825 32.897 16.4638 32.9609 16.7876 32.9609C17.1286 32.9609 17.4162 32.8885 17.6506 32.7436C17.8892 32.5945 18.0703 32.3771 18.1939 32.0916C18.3175 31.8061 18.3793 31.4545 18.3793 31.0369V21.9091ZM30.505 25.674C30.4538 25.1584 30.2344 24.7578 29.8466 24.4723C29.4588 24.1868 28.9325 24.044 28.2678 24.044C27.8161 24.044 27.4347 24.108 27.1236 24.2358C26.8125 24.3594 26.5739 24.532 26.4077 24.7536C26.2457 24.9751 26.1648 25.2266 26.1648 25.5078C26.1563 25.7422 26.2053 25.9467 26.3118 26.1214C26.4226 26.2962 26.5739 26.4474 26.7656 26.5753C26.9574 26.6989 27.179 26.8075 27.4304 26.9013C27.6818 26.9908 27.9503 27.0675 28.2358 27.1314L29.4119 27.4126C29.983 27.5405 30.5071 27.7109 30.9844 27.924C31.4616 28.1371 31.875 28.3991 32.2244 28.7102C32.5739 29.0213 32.8445 29.3878 33.0362 29.8097C33.2322 30.2315 33.3324 30.7152 33.3366 31.2607C33.3324 32.0618 33.1278 32.7564 32.723 33.3445C32.3224 33.9283 31.7429 34.3821 30.9844 34.706C30.2301 35.0256 29.3203 35.1854 28.255 35.1854C27.1982 35.1854 26.2777 35.0234 25.4936 34.6996C24.7138 34.3757 24.1044 33.8963 23.6655 33.2614C23.2308 32.6222 23.0028 31.8317 22.9815 30.8899H25.6598C25.6896 31.3288 25.8153 31.6953 26.0369 31.9893C26.2628 32.2791 26.5632 32.4986 26.9382 32.6477C27.3175 32.7926 27.7457 32.8651 28.223 32.8651C28.6918 32.8651 29.0987 32.7969 29.4439 32.6605C29.7933 32.5241 30.0639 32.3345 30.2557 32.0916C30.4474 31.8487 30.5433 31.5696 30.5433 31.2543C30.5433 30.9602 30.456 30.7131 30.2812 30.5128C30.1108 30.3125 29.8594 30.142 29.527 30.0014C29.1989 29.8608 28.7962 29.733 28.3189 29.6179L26.8935 29.2599C25.7898 28.9915 24.9183 28.5717 24.2791 28.0007C23.6399 27.4297 23.3224 26.6605 23.3267 25.6932C23.3224 24.9006 23.5334 24.2081 23.9595 23.6158C24.3899 23.0234 24.9801 22.5611 25.7301 22.2287C26.4801 21.8963 27.3324 21.7301 28.2869 21.7301C29.2585 21.7301 30.1065 21.8963 30.831 22.2287C31.5597 22.5611 32.1264 23.0234 32.5312 23.6158C32.9361 24.2081 33.1449 24.8942 33.1577 25.674H30.505Z" fill="black"/>
<path d="M24.7567 9L36 20.2432H26.7567C25.6522 20.2432 24.7567 19.3478 24.7567 18.2432V9Z" fill="#BF9911"/>
</svg>
