<svg width="45" height="45" viewBox="0 0 45 45" fill="none" xmlns="http://www.w3.org/2000/svg">
<path d="M10 11C10 9.89543 10.8954 9 12 9H24.7568L36 20.2432V35.1081C36 36.2127 35.1046 37.1081 34 37.1081H12C10.8954 37.1081 10 36.2127 10 35.1081V11Z" fill="#017AD3"/>
<path d="M24.7567 9L36 20.2432H26.7567C25.6522 20.2432 24.7567 19.3478 24.7567 18.2432V9Z" fill="#0169CA"/>
<path d="M11.6392 24.1911V21.9091H22.3906V24.1911H18.3828V35H15.647V24.1911H11.6392ZM31.2628 25.674C31.2116 25.1584 30.9922 24.7578 30.6044 24.4723C30.2166 24.1868 29.6903 24.044 29.0256 24.044C28.5739 24.044 28.1925 24.108 27.8814 24.2358C27.5703 24.3594 27.3317 24.532 27.1655 24.7536C27.0036 24.9751 26.9226 25.2266 26.9226 25.5078C26.9141 25.7422 26.9631 25.9467 27.0696 26.1214C27.1804 26.2962 27.3317 26.4474 27.5234 26.5753C27.7152 26.6989 27.9368 26.8075 28.1882 26.9013C28.4396 26.9908 28.7081 27.0675 28.9936 27.1314L30.1697 27.4126C30.7408 27.5405 31.2649 27.7109 31.7422 27.924C32.2195 28.1371 32.6328 28.3991 32.9822 28.7102C33.3317 29.0213 33.6023 29.3878 33.794 29.8097C33.9901 30.2315 34.0902 30.7152 34.0945 31.2607C34.0902 32.0618 33.8857 32.7564 33.4808 33.3445C33.0803 33.9283 32.5007 34.3821 31.7422 34.706C30.9879 35.0256 30.0781 35.1854 29.0128 35.1854C27.956 35.1854 27.0355 35.0234 26.2514 34.6996C25.4716 34.3757 24.8622 33.8963 24.4233 33.2614C23.9886 32.6222 23.7607 31.8317 23.7393 30.8899H26.4176C26.4474 31.3288 26.5732 31.6953 26.7947 31.9893C27.0206 32.2791 27.321 32.4986 27.696 32.6477C28.0753 32.7926 28.5036 32.8651 28.9808 32.8651C29.4496 32.8651 29.8565 32.7969 30.2017 32.6605C30.5511 32.5241 30.8217 32.3345 31.0135 32.0916C31.2053 31.8487 31.3011 31.5696 31.3011 31.2543C31.3011 30.9602 31.2138 30.7131 31.0391 30.5128C30.8686 30.3125 30.6172 30.142 30.2848 30.0014C29.9567 29.8608 29.554 29.733 29.0767 29.6179L27.6513 29.2599C26.5476 28.9915 25.6761 28.5717 25.0369 28.0007C24.3977 27.4297 24.0803 26.6605 24.0845 25.6932C24.0803 24.9006 24.2912 24.2081 24.7173 23.6158C25.1477 23.0234 25.7379 22.5611 26.4879 22.2287C27.2379 21.8963 28.0902 21.7301 29.0447 21.7301C30.0163 21.7301 30.8643 21.8963 31.5888 22.2287C32.3175 22.5611 32.8842 23.0234 33.2891 23.6158C33.6939 24.2081 33.9027 24.8942 33.9155 25.674H31.2628Z" fill="white"/>
</svg>
