<svg width="45" height="45" viewBox="0 0 45 45" fill="none" xmlns="http://www.w3.org/2000/svg">
<path d="M4 11.9675H33.7459C34.6263 11.9269 35.4854 12.2721 36.1353 12.9276C36.7853 13.5832 37.1732 14.4957 37.2141 15.4655L37.079 32.148C37.079 32.148 36.2848 33.8998 35.6349 34.555L33.7459 35.7468H7.46818C6.58812 35.7875 5.72924 35.4425 5.07934 34.7874C4.42944 34.1323 4.04138 33.2203 4 32.2508V11.9675Z" fill="#FB6A49"/>
<path d="M6.81579 8.00363H18.9368C20.7087 8.06818 22.4268 8.58871 23.9003 9.50746L30.1193 13.8817H4V10.3402C4.0432 9.68348 4.36345 9.06931 4.89093 8.6316C5.41841 8.19389 6.11032 7.96816 6.81579 8.00363V8.00363Z" fill="#FB6A49"/>
<path d="M38.9226 15.8027L35.3788 30.2917C35.3157 31.2418 34.9864 32.1193 34.4622 32.7348C33.9379 33.3502 33.2607 33.6544 32.5766 33.5815H10.0348C9.34948 33.6543 8.67117 33.3487 8.1467 32.7309C7.62223 32.1132 7.29382 31.2331 7.23256 30.281L10.7763 15.7921C11.0191 15.0649 11.4072 14.4503 11.8943 14.0215C12.3814 13.5927 12.9469 13.3678 13.5234 13.3737H37.3644C38.5533 13.3737 39.2535 14.4625 38.9226 15.8027Z" fill="#C03E21"/>
<path d="M40.9044 18.8914L37.079 32.6294C37.079 32.6294 36.7268 33.9717 36.1163 34.555C35.5057 35.1382 34.3109 35.809 33.5143 35.74H7.26331C6.46525 35.8089 5.67533 35.5193 5.06456 34.9339C4.66813 34.5539 4.36789 34.0692 4.18647 33.529C3.9891 32.9414 4.09155 32.3076 4.26997 31.7139L8.12686 18.8813C8.40962 18.1922 8.86158 17.6097 9.42882 17.2033C9.99605 16.7969 10.6546 16.5838 11.3259 16.5894H39.0899C40.4745 16.5894 41.2898 17.6213 40.9044 18.8914Z" fill="#F64D27"/>
<path d="M27.1181 21.317H29.515V34.5003H27.1181V21.317Z" fill="white"/>
<path d="M22.8475 17.5424C22.3794 17.0743 22.3794 16.3155 22.8475 15.8474V15.8474C23.3155 15.3794 24.0743 15.3794 24.5424 15.8475L38.4044 29.7095L36.7095 31.4044L22.8475 17.5424Z" fill="white"/>
<path d="M31.9121 35.6987C31.9121 37.6844 30.3024 39.2941 28.3167 39.2941C26.331 39.2941 24.7213 37.6844 24.7213 35.6987C24.7213 33.713 26.331 32.1032 28.3167 32.1032C30.3024 32.1032 31.9121 33.713 31.9121 35.6987Z" fill="#F64D27"/>
<path d="M40.9469 28.8625C42.351 30.2666 42.351 32.5431 40.9469 33.9472C39.5428 35.3513 37.2663 35.3513 35.8622 33.9472C34.4581 32.5431 34.4581 30.2666 35.8622 28.8625C37.2663 27.4584 39.5428 27.4584 40.9469 28.8625Z" fill="#F64D27"/>
<path d="M31.9121 21.3169C31.9121 23.3026 30.3024 24.9124 28.3167 24.9124C26.331 24.9124 24.7213 23.3026 24.7213 21.3169C24.7213 19.3312 26.331 17.7215 28.3167 17.7215C30.3024 17.7215 31.9121 19.3312 31.9121 21.3169Z" fill="#F64D27"/>
<path fill-rule="evenodd" clip-rule="evenodd" d="M28.3167 37.6381C29.3878 37.6381 30.2561 36.7698 30.2561 35.6987C30.2561 34.6275 29.3878 33.7592 28.3167 33.7592C27.2456 33.7592 26.3773 34.6275 26.3773 35.6987C26.3773 36.7698 27.2456 37.6381 28.3167 37.6381ZM39.776 32.7762C40.5333 32.0188 40.5333 30.7908 39.776 30.0335C39.0186 29.2761 37.7906 29.2761 37.0332 30.0335C36.2758 30.7908 36.2758 32.0188 37.0332 32.7762C37.7906 33.5336 39.0186 33.5336 39.776 32.7762ZM28.3167 23.2564C29.3878 23.2564 30.2561 22.3881 30.2561 21.3169C30.2561 20.2458 29.3878 19.3775 28.3167 19.3775C27.2456 19.3775 26.3773 20.2458 26.3773 21.3169C26.3773 22.3881 27.2456 23.2564 28.3167 23.2564ZM28.3167 24.9124C30.3024 24.9124 31.9121 23.3026 31.9121 21.3169C31.9121 19.3312 30.3024 17.7215 28.3167 17.7215C26.331 17.7215 24.7213 19.3312 24.7213 21.3169C24.7213 23.3026 26.331 24.9124 28.3167 24.9124ZM40.9469 28.8625C42.351 30.2666 42.351 32.5431 40.9469 33.9472C39.5428 35.3513 37.2663 35.3513 35.8622 33.9472C34.4581 32.5431 34.4581 30.2666 35.8622 28.8625C37.2663 27.4584 39.5428 27.4584 40.9469 28.8625ZM31.9121 35.6987C31.9121 37.6844 30.3024 39.2941 28.3167 39.2941C26.331 39.2941 24.7213 37.6844 24.7213 35.6987C24.7213 33.713 26.331 32.1032 28.3167 32.1032C30.3024 32.1032 31.9121 33.713 31.9121 35.6987Z" fill="white"/>
</svg>
