<svg width="45" height="45" viewBox="0 0 45 45" fill="none" xmlns="http://www.w3.org/2000/svg">
<path d="M10 11C10 9.89543 10.8954 9 12 9H24.7568L36 20.2432V35.1081C36 36.2127 35.1046 37.1081 34 37.1081H12C10.8954 37.1081 10 36.2127 10 35.1081V11Z" fill="#FFCF24"/>
<path d="M24.7567 9L36 20.2432H26.7567C25.6522 20.2432 24.7567 19.3478 24.7567 18.2432V9Z" fill="#BF9912"/>
<mask id="path-3-outside-1" maskUnits="userSpaceOnUse" x="16" y="22" width="18" height="14" fill="black">
<rect fill="white" x="16" y="22" width="18" height="14"/>
<path d="M20.5679 34.9675C19.7039 34.9675 18.9573 34.7329 18.3279 34.2636C17.6986 33.7943 17.256 33.1436 17 32.3116L18.3919 31.7357C18.7546 32.9516 19.4799 33.5596 20.5679 33.5596C21.1652 33.5596 21.6452 33.3516 22.0078 32.9356C22.3811 32.509 22.5678 31.9597 22.5678 31.2877V23.256H24.0397V31.1597C24.0397 32.3436 23.7251 33.2769 23.0958 33.9596C22.4771 34.6316 21.6345 34.9675 20.5679 34.9675Z"/>
<path d="M33.23 31.6557C33.23 32.6583 32.862 33.4636 32.126 34.0716C31.3794 34.6689 30.4728 34.9675 29.4061 34.9675C28.4568 34.9675 27.6195 34.6902 26.8942 34.1356C26.1689 33.5809 25.6676 32.8236 25.3903 31.8637L26.7982 31.2877C26.8942 31.629 27.0276 31.9383 27.1982 32.2156C27.3689 32.493 27.5662 32.733 27.7902 32.9356C28.0249 33.1276 28.2809 33.2823 28.5582 33.3996C28.8355 33.5063 29.1288 33.5596 29.4381 33.5596C30.1101 33.5596 30.6594 33.3889 31.0861 33.0476C31.5127 32.6956 31.7261 32.2316 31.7261 31.6557C31.7261 31.1757 31.5501 30.765 31.1981 30.4237C30.8674 30.0931 30.2488 29.7731 29.3421 29.4638C28.4249 29.1331 27.8542 28.9091 27.6302 28.7918C26.4143 28.1731 25.8063 27.2612 25.8063 26.0559C25.8063 25.2132 26.1423 24.4933 26.8142 23.896C27.4969 23.2987 28.3342 23 29.3261 23C30.2008 23 30.9581 23.224 31.5981 23.672C32.238 24.1093 32.6647 24.6586 32.878 25.3199L31.5021 25.8959C31.3741 25.4692 31.1181 25.1173 30.7341 24.8399C30.3608 24.5519 29.9021 24.4079 29.3581 24.4079C28.7822 24.4079 28.2969 24.5679 27.9022 24.8879C27.5076 25.1866 27.3102 25.5759 27.3102 26.0559C27.3102 26.4505 27.4649 26.7919 27.7742 27.0798C28.1155 27.3678 28.8568 27.7092 29.9981 28.1038C31.1607 28.4985 31.9874 28.9838 32.478 29.5597C32.9793 30.1251 33.23 30.8237 33.23 31.6557Z"/>
</mask>
<path d="M20.5679 34.9675C19.7039 34.9675 18.9573 34.7329 18.3279 34.2636C17.6986 33.7943 17.256 33.1436 17 32.3116L18.3919 31.7357C18.7546 32.9516 19.4799 33.5596 20.5679 33.5596C21.1652 33.5596 21.6452 33.3516 22.0078 32.9356C22.3811 32.509 22.5678 31.9597 22.5678 31.2877V23.256H24.0397V31.1597C24.0397 32.3436 23.7251 33.2769 23.0958 33.9596C22.4771 34.6316 21.6345 34.9675 20.5679 34.9675Z" fill="black"/>
<path d="M33.23 31.6557C33.23 32.6583 32.862 33.4636 32.126 34.0716C31.3794 34.6689 30.4728 34.9675 29.4061 34.9675C28.4568 34.9675 27.6195 34.6902 26.8942 34.1356C26.1689 33.5809 25.6676 32.8236 25.3903 31.8637L26.7982 31.2877C26.8942 31.629 27.0276 31.9383 27.1982 32.2156C27.3689 32.493 27.5662 32.733 27.7902 32.9356C28.0249 33.1276 28.2809 33.2823 28.5582 33.3996C28.8355 33.5063 29.1288 33.5596 29.4381 33.5596C30.1101 33.5596 30.6594 33.3889 31.0861 33.0476C31.5127 32.6956 31.7261 32.2316 31.7261 31.6557C31.7261 31.1757 31.5501 30.765 31.1981 30.4237C30.8674 30.0931 30.2488 29.7731 29.3421 29.4638C28.4249 29.1331 27.8542 28.9091 27.6302 28.7918C26.4143 28.1731 25.8063 27.2612 25.8063 26.0559C25.8063 25.2132 26.1423 24.4933 26.8142 23.896C27.4969 23.2987 28.3342 23 29.3261 23C30.2008 23 30.9581 23.224 31.5981 23.672C32.238 24.1093 32.6647 24.6586 32.878 25.3199L31.5021 25.8959C31.3741 25.4692 31.1181 25.1173 30.7341 24.8399C30.3608 24.5519 29.9021 24.4079 29.3581 24.4079C28.7822 24.4079 28.2969 24.5679 27.9022 24.8879C27.5076 25.1866 27.3102 25.5759 27.3102 26.0559C27.3102 26.4505 27.4649 26.7919 27.7742 27.0798C28.1155 27.3678 28.8568 27.7092 29.9981 28.1038C31.1607 28.4985 31.9874 28.9838 32.478 29.5597C32.9793 30.1251 33.23 30.8237 33.23 31.6557Z" fill="black"/>
<path d="M18.3279 34.2636L18.3877 34.1834L18.3877 34.1834L18.3279 34.2636ZM17 32.3116L16.9618 32.2192L16.8777 32.254L16.9044 32.3411L17 32.3116ZM18.3919 31.7357L18.4878 31.7071L18.4561 31.6009L18.3537 31.6433L18.3919 31.7357ZM22.0078 32.9356L21.9325 32.8698L21.9324 32.8699L22.0078 32.9356ZM22.5678 23.256V23.156H22.4678V23.256H22.5678ZM24.0397 23.256H24.1397V23.156H24.0397V23.256ZM23.0958 33.9596L23.0222 33.8918L23.0222 33.8918L23.0958 33.9596ZM32.126 34.0716L32.1885 34.1497L32.1897 34.1487L32.126 34.0716ZM26.8942 34.1356L26.955 34.0561L26.955 34.0561L26.8942 34.1356ZM25.3903 31.8637L25.3524 31.7711L25.2693 31.8051L25.2942 31.8914L25.3903 31.8637ZM26.7982 31.2877L26.8945 31.2606L26.8642 31.1527L26.7604 31.1951L26.7982 31.2877ZM27.1982 32.2156L27.1131 32.2681L27.1131 32.2681L27.1982 32.2156ZM27.7902 32.9356L27.723 33.0099L27.7269 33.013L27.7902 32.9356ZM28.5582 33.3996L28.5192 33.4917L28.5223 33.4929L28.5582 33.3996ZM31.0861 33.0476L31.1486 33.1257L31.1497 33.1248L31.0861 33.0476ZM31.1981 30.4237L31.1274 30.4944L31.1285 30.4955L31.1981 30.4237ZM29.3421 29.4638L29.3082 29.5578L29.3099 29.5584L29.3421 29.4638ZM27.6302 28.7918L27.6766 28.7032L27.6756 28.7027L27.6302 28.7918ZM26.8142 23.896L26.7484 23.8207L26.7478 23.8212L26.8142 23.896ZM31.5981 23.672L31.5407 23.7539L31.5416 23.7545L31.5981 23.672ZM32.878 25.3199L32.9166 25.4122L33.0014 25.3767L32.9732 25.2892L32.878 25.3199ZM31.5021 25.8959L31.4063 25.9246L31.4382 26.031L31.5407 25.9881L31.5021 25.8959ZM30.7341 24.8399L30.673 24.9191L30.6755 24.921L30.7341 24.8399ZM27.9022 24.8879L27.9626 24.9677L27.9652 24.9656L27.9022 24.8879ZM27.7742 27.0798L27.706 27.1531L27.7097 27.1563L27.7742 27.0798ZM29.9981 28.1038L29.9654 28.1983L29.966 28.1985L29.9981 28.1038ZM32.478 29.5597L32.4019 29.6246L32.4032 29.6261L32.478 29.5597ZM20.5679 34.8675C19.7232 34.8675 18.998 34.6385 18.3877 34.1834L18.2682 34.3437C18.9165 34.8272 19.6846 35.0675 20.5679 35.0675V34.8675ZM18.3877 34.1834C17.7773 33.7282 17.346 33.0962 17.0956 32.2822L16.9044 32.3411C17.1659 33.191 17.62 33.8603 18.2682 34.3437L18.3877 34.1834ZM17.0382 32.404L18.4302 31.8281L18.3537 31.6433L16.9618 32.2192L17.0382 32.404ZM18.2961 31.7642C18.4812 32.3847 18.7617 32.8601 19.1437 33.1802C19.527 33.5016 20.0041 33.6596 20.5679 33.6596V33.4596C20.0437 33.4596 19.6141 33.3136 19.2722 33.027C18.9288 32.7392 18.6654 32.3025 18.4878 31.7071L18.2961 31.7642ZM20.5679 33.6596C21.1914 33.6596 21.6998 33.441 22.0832 33.0013L21.9324 32.8699C21.5905 33.2622 21.139 33.4596 20.5679 33.4596V33.6596ZM22.0831 33.0015C22.4752 32.5533 22.6678 31.9791 22.6678 31.2877H22.4678C22.4678 31.9402 22.2871 32.4646 21.9325 32.8698L22.0831 33.0015ZM22.6678 31.2877V23.256H22.4678V31.2877H22.6678ZM22.5678 23.356H24.0397V23.156H22.5678V23.356ZM23.9397 23.256V31.1597H24.1397V23.256H23.9397ZM23.9397 31.1597C23.9397 32.3257 23.6302 33.2323 23.0222 33.8918L23.1693 34.0274C23.8199 33.3216 24.1397 32.3616 24.1397 31.1597H23.9397ZM23.0222 33.8918C22.4257 34.5398 21.6117 34.8675 20.5679 34.8675V35.0675C21.6573 35.0675 22.5285 34.7233 23.1693 34.0273L23.0222 33.8918ZM33.13 31.6557C33.13 32.6302 32.774 33.4066 32.0624 33.9945L32.1897 34.1487C32.95 33.5206 33.33 32.6864 33.33 31.6557H33.13ZM32.0636 33.9935C31.3367 34.575 30.4528 34.8675 29.4061 34.8675V35.0675C30.4927 35.0675 31.4221 34.7628 32.1885 34.1497L32.0636 33.9935ZM29.4061 34.8675C28.4779 34.8675 27.6621 34.5969 26.955 34.0561L26.8335 34.215C27.577 34.7835 28.4358 35.0675 29.4061 35.0675V34.8675ZM26.955 34.0561C26.2483 33.5157 25.7583 32.7774 25.4864 31.8359L25.2942 31.8914C25.5769 32.8699 26.0896 33.6461 26.8335 34.215L26.955 34.0561ZM25.4282 31.9562L26.8361 31.3802L26.7604 31.1951L25.3524 31.7711L25.4282 31.9562ZM26.702 31.3148C26.8003 31.6642 26.9371 31.9822 27.1131 32.2681L27.2834 32.1632C27.118 31.8945 26.9882 31.5938 26.8945 31.2606L26.702 31.3148ZM27.1131 32.2681C27.2883 32.5528 27.4916 32.8003 27.7231 33.0098L27.8573 32.8615C27.6409 32.6656 27.4495 32.4331 27.2834 32.1632L27.1131 32.2681ZM27.7269 33.013C27.9689 33.211 28.2331 33.3706 28.5192 33.4917L28.5971 33.3075C28.3287 33.1939 28.0809 33.0442 27.8535 32.8582L27.7269 33.013ZM28.5223 33.4929C28.8115 33.6042 29.1171 33.6596 29.4381 33.6596V33.4596C29.1406 33.4596 28.8595 33.4083 28.5941 33.3063L28.5223 33.4929ZM29.4381 33.6596C30.1275 33.6596 30.7004 33.4842 31.1486 33.1257L31.0236 32.9695C30.6185 33.2936 30.0928 33.4596 29.4381 33.4596V33.6596ZM31.1497 33.1248C31.6005 32.7529 31.8261 32.2601 31.8261 31.6557H31.6261C31.6261 32.2032 31.425 32.6384 31.0224 32.9705L31.1497 33.1248ZM31.8261 31.6557C31.8261 31.148 31.6386 30.7116 31.2677 30.3519L31.1285 30.4955C31.4615 30.8184 31.6261 31.2034 31.6261 31.6557H31.8261ZM31.2688 30.353C30.9209 30.0052 30.2834 29.6792 29.3744 29.3691L29.3099 29.5584C30.2141 29.8669 30.8139 30.181 31.1274 30.4944L31.2688 30.353ZM29.3761 29.3697C28.4565 29.0382 27.8932 28.8167 27.6766 28.7032L27.5838 28.8804C27.8152 29.0016 28.3932 29.228 29.3082 29.5578L29.3761 29.3697ZM27.6756 28.7027C27.0792 28.3992 26.6379 28.027 26.3455 27.5884C26.0535 27.1504 25.9063 26.6408 25.9063 26.0559H25.7063C25.7063 26.6762 25.863 27.2253 26.1791 27.6993C26.4946 28.1727 26.9653 28.5657 27.5849 28.8809L27.6756 28.7027ZM25.9063 26.0559C25.9063 25.2439 26.2284 24.5505 26.8807 23.9707L26.7478 23.8212C26.0561 24.4361 25.7063 25.1826 25.7063 26.0559H25.9063ZM26.8801 23.9712C27.5427 23.3914 28.356 23.1 29.3261 23.1V22.9C28.3124 22.9 27.451 23.2059 26.7484 23.8207L26.8801 23.9712ZM29.3261 23.1C30.1828 23.1 30.9195 23.3191 31.5407 23.7539L31.6554 23.5901C30.9966 23.1289 30.2187 22.9 29.3261 22.9V23.1ZM31.5416 23.7545C32.1655 24.1809 32.5771 24.7128 32.7828 25.3506L32.9732 25.2892C32.7523 24.6044 32.3105 24.0377 31.6545 23.5894L31.5416 23.7545ZM32.8394 25.2277L31.4635 25.8036L31.5407 25.9881L32.9166 25.4122L32.8394 25.2277ZM31.5978 25.8672C31.4631 25.4181 31.1933 25.0482 30.7926 24.7589L30.6755 24.921C31.0429 25.1863 31.285 25.5204 31.4063 25.9246L31.5978 25.8672ZM30.7952 24.7608C30.4017 24.4572 29.9207 24.3079 29.3581 24.3079V24.5079C29.8836 24.5079 30.3198 24.6466 30.673 24.9191L30.7952 24.7608ZM29.3581 24.3079C28.7625 24.3079 28.2541 24.4739 27.8392 24.8103L27.9652 24.9656C28.3397 24.662 28.8019 24.5079 29.3581 24.5079V24.3079ZM27.8419 24.8082C27.4231 25.1251 27.2102 25.5435 27.2102 26.0559H27.4102C27.4102 25.6084 27.592 25.2481 27.9625 24.9677L27.8419 24.8082ZM27.2102 26.0559C27.2102 26.4804 27.378 26.8476 27.7061 27.153L27.8424 27.0067C27.5517 26.7361 27.4102 26.4206 27.4102 26.0559H27.2102ZM27.7097 27.1563C27.8907 27.309 28.1711 27.4708 28.5444 27.6427C28.919 27.8152 29.393 28.0004 29.9654 28.1983L30.0308 28.0093C29.4619 27.8126 28.9946 27.6298 28.628 27.461C28.26 27.2915 27.999 27.1387 27.8387 27.0034L27.7097 27.1563ZM29.966 28.1985C31.1211 28.5906 31.9281 29.0684 32.4019 29.6246L32.5542 29.4949C32.0466 28.8991 31.2004 28.4063 30.0303 28.0091L29.966 28.1985ZM32.4032 29.6261C32.8866 30.1712 33.13 30.8455 33.13 31.6557H33.33C33.33 30.8019 33.0721 30.0789 32.5528 29.4934L32.4032 29.6261Z" fill="black" mask="url(#path-3-outside-1)"/>
</svg>
