<svg width="45" height="45" viewBox="0 0 45 45" fill="none" xmlns="http://www.w3.org/2000/svg">
<path d="M10 11C10 9.89543 10.8954 9 12 9H24.7568L36 20.2432V35.1081C36 36.2127 35.1046 37.1081 34 37.1081H12C10.8954 37.1081 10 36.2127 10 35.1081V11Z" fill="#F64C00"/>
<path d="M24.7567 9L36 20.2432H26.7567C25.6522 20.2432 24.7567 19.3478 24.7567 18.2432V9Z" fill="#FF8954"/>
<path d="M28.0024 29.8911H25.937V34H24.084V23.3359H27.834C29.0645 23.3359 30.0142 23.6118 30.6831 24.1636C31.3521 24.7153 31.6865 25.5137 31.6865 26.5586C31.6865 27.2715 31.5132 27.8696 31.1665 28.353C30.8247 28.8315 30.3462 29.2002 29.731 29.459L32.126 33.9048V34H30.1411L28.0024 29.8911ZM25.937 28.4043H27.8413C28.4663 28.4043 28.9546 28.248 29.3062 27.9355C29.6577 27.6182 29.8335 27.186 29.8335 26.6392C29.8335 26.0679 29.6699 25.626 29.3428 25.3135C29.0205 25.001 28.5371 24.8398 27.8926 24.8301H25.937V28.4043Z" fill="white"/>
</svg>
