<svg width="45" height="45" viewBox="0 0 45 45" fill="none" xmlns="http://www.w3.org/2000/svg">
<path d="M6.82551 8.00054H18.955C20.7463 8.08469 22.4729 8.69615 23.9178 9.75812L30.1198 14.8392H4V10.7207C4.00656 10.3565 4.08489 9.99713 4.2305 9.66323C4.37611 9.32933 4.58614 9.02741 4.84858 8.77476C5.11102 8.52211 5.42072 8.32369 5.75994 8.19084C6.09916 8.05799 6.46126 7.99332 6.82551 8.00054Z" fill="#FB6A49"/>
<path d="M4 12.9021H36.8183C37.8808 12.8577 38.9177 13.2364 39.7015 13.9551C40.4854 14.6737 40.9523 15.6738 41 16.736V33.1253C40.9523 34.1876 40.4854 35.1877 39.7015 35.9063C38.9177 36.625 37.8808 37.0036 36.8183 36.9593H8.18175C7.11915 37.0036 6.08232 36.625 5.29847 35.9063C4.51462 35.1877 4.04768 34.1876 4 33.1253V12.9021Z" fill="#F64D27"/>
<path d="M27.1181 21.316H29.515V34.4971H27.1181V21.316Z" fill="white"/>
<path d="M22.8475 17.5419C22.3794 17.074 22.3794 16.3153 22.8475 15.8473C23.3155 15.3793 24.0743 15.3793 24.5424 15.8473L38.4044 29.7071L36.7095 31.4017L22.8475 17.5419Z" fill="white"/>
<path d="M31.9121 35.6953C31.9121 37.6807 30.3024 39.2902 28.3167 39.2902C26.331 39.2902 24.7212 37.6807 24.7212 35.6953C24.7212 33.71 26.331 32.1005 28.3167 32.1005C30.3024 32.1005 31.9121 33.71 31.9121 35.6953Z" fill="#F64D27"/>
<path d="M40.9469 28.8603C42.351 30.2642 42.351 32.5403 40.9469 33.9442C39.5428 35.348 37.2663 35.348 35.8622 33.9442C34.4581 32.5403 34.4581 30.2642 35.8622 28.8603C37.2663 27.4564 39.5428 27.4564 40.9469 28.8603Z" fill="#F64D27"/>
<path d="M31.9121 21.316C31.9121 23.3014 30.3024 24.9108 28.3167 24.9108C26.331 24.9108 24.7212 23.3014 24.7212 21.316C24.7212 19.3306 26.331 17.7211 28.3167 17.7211C30.3024 17.7211 31.9121 19.3306 31.9121 21.316Z" fill="#F64D27"/>
<path fill-rule="evenodd" clip-rule="evenodd" d="M28.3167 37.6344C29.3878 37.6344 30.2561 36.7663 30.2561 35.6953C30.2561 34.6244 29.3878 33.7562 28.3167 33.7562C27.2456 33.7562 26.3772 34.6244 26.3772 35.6953C26.3772 36.7663 27.2456 37.6344 28.3167 37.6344ZM39.7759 32.7734C40.5333 32.0161 40.5333 30.7883 39.7759 30.0311C39.0185 29.2738 37.7906 29.2738 37.0332 30.0311C36.2758 30.7883 36.2758 32.0161 37.0332 32.7734C37.7906 33.5307 39.0185 33.5307 39.7759 32.7734ZM28.3167 23.2551C29.3878 23.2551 30.2561 22.3869 30.2561 21.316C30.2561 20.245 29.3878 19.3769 28.3167 19.3769C27.2456 19.3769 26.3772 20.245 26.3772 21.316C26.3772 22.3869 27.2456 23.2551 28.3167 23.2551ZM28.3167 24.9108C30.3024 24.9108 31.9121 23.3014 31.9121 21.316C31.9121 19.3306 30.3024 17.7211 28.3167 17.7211C26.331 17.7211 24.7212 19.3306 24.7212 21.316C24.7212 23.3014 26.331 24.9108 28.3167 24.9108ZM40.9469 28.8603C42.351 30.2642 42.351 32.5403 40.9469 33.9442C39.5428 35.348 37.2663 35.348 35.8622 33.9442C34.4581 32.5403 34.4581 30.2642 35.8622 28.8603C37.2663 27.4564 39.5428 27.4564 40.9469 28.8603ZM31.9121 35.6953C31.9121 37.6807 30.3024 39.2902 28.3167 39.2902C26.331 39.2902 24.7212 37.6807 24.7212 35.6953C24.7212 33.71 26.331 32.1005 28.3167 32.1005C30.3024 32.1005 31.9121 33.71 31.9121 35.6953Z" fill="white"/>
</svg>
