<svg width="45" height="45" viewBox="0 0 45 45" fill="none" xmlns="http://www.w3.org/2000/svg">
<path d="M10 11C10 9.89543 10.8954 9 12 9H24.7568L36 20.2432V35.1081C36 36.2127 35.1046 37.1081 34 37.1081H12C10.8954 37.1081 10 36.2127 10 35.1081V11Z" fill="#017AD3"/>
<path d="M24.7567 9L36 20.2432H26.7567C25.6522 20.2432 24.7567 19.3478 24.7567 18.2432V9Z" fill="#0169CA"/>
<path d="M24.7891 24.8301H21.4639V34H19.6255V24.8301H16.3296V23.3359H24.7891V24.8301ZM31.6519 31.2534C31.6519 30.7847 31.4858 30.4233 31.1538 30.1694C30.8267 29.9155 30.2334 29.6592 29.374 29.4004C28.5146 29.1416 27.8311 28.8535 27.3232 28.5361C26.3516 27.9258 25.8657 27.1299 25.8657 26.1484C25.8657 25.2891 26.2148 24.5811 26.9131 24.0244C27.6162 23.4678 28.5269 23.1895 29.645 23.1895C30.3872 23.1895 31.0488 23.3262 31.6299 23.5996C32.2109 23.873 32.6675 24.2637 32.9995 24.7715C33.3315 25.2744 33.4976 25.8335 33.4976 26.4487H31.6519C31.6519 25.8921 31.4761 25.4575 31.1245 25.145C30.7778 24.8276 30.2798 24.6689 29.6304 24.6689C29.0249 24.6689 28.5537 24.7983 28.2168 25.0571C27.8848 25.3159 27.7188 25.6772 27.7188 26.1411C27.7188 26.5317 27.8994 26.8589 28.2607 27.1226C28.6221 27.3813 29.2178 27.6353 30.0479 27.8843C30.8779 28.1284 31.5444 28.4092 32.0474 28.7266C32.5503 29.0391 32.9189 29.4004 33.1533 29.8105C33.3877 30.2158 33.5049 30.6919 33.5049 31.2388C33.5049 32.1274 33.1631 32.8354 32.4795 33.3628C31.8008 33.8853 30.8779 34.1465 29.7109 34.1465C28.9395 34.1465 28.229 34.0049 27.5796 33.7217C26.9351 33.4336 26.4321 33.0381 26.0708 32.5352C25.7144 32.0322 25.5361 31.4463 25.5361 30.7773H27.3892C27.3892 31.3828 27.5894 31.8516 27.9897 32.1836C28.3901 32.5156 28.9639 32.6816 29.7109 32.6816C30.3555 32.6816 30.8389 32.5522 31.1611 32.2935C31.4883 32.0298 31.6519 31.6831 31.6519 31.2534Z" fill="white"/>
</svg>
