<svg width="45" height="45" viewBox="0 0 45 45" fill="none" xmlns="http://www.w3.org/2000/svg">
<path d="M10 11C10 9.89543 10.8954 9 12 9H24.7568L36 20.2432V35.1081C36 36.2127 35.1046 37.1081 34 37.1081H12C10.8954 37.1081 10 36.2127 10 35.1081V11Z" fill="#017AD3"/>
<path d="M34 23.7982C34 22.3408 32.1749 20.9596 29.3767 20.1031C30.0224 17.2511 29.7354 14.9821 28.4709 14.2556C28.1794 14.0852 27.8386 14.0045 27.4664 14.0045V15.0045C27.6726 15.0045 27.8386 15.0448 27.9776 15.1211C28.5874 15.4708 28.852 16.8027 28.6457 18.5157C28.5964 18.9372 28.5157 19.3811 28.417 19.8341C27.5381 19.6188 26.5785 19.4529 25.5695 19.3453C24.9641 18.5157 24.3363 17.7623 23.704 17.1031C25.1659 15.7444 26.5381 15 27.4709 15V14C26.2377 14 24.6233 14.8789 22.991 16.4036C21.3587 14.8879 19.7444 14.0179 18.5112 14.0179V15.0179C19.4395 15.0179 20.8161 15.7578 22.278 17.1076C21.6502 17.7668 21.0224 18.5157 20.426 19.3453C19.4126 19.4529 18.4529 19.6188 17.574 19.8385C17.4709 19.3901 17.3946 18.9551 17.3408 18.5381C17.13 16.8251 17.3901 15.4933 17.9955 15.139C18.13 15.0583 18.3049 15.0224 18.5112 15.0224V14.0224C18.1345 14.0224 17.7937 14.1031 17.4978 14.2735C16.2377 15 15.9552 17.2646 16.6054 20.1076C13.8161 20.9686 12 22.3453 12 23.7982C12 25.2556 13.8251 26.6367 16.6233 27.4932C15.9776 30.3452 16.2646 32.6143 17.5291 33.3407C17.8206 33.5112 18.1614 33.5919 18.5381 33.5919C19.7713 33.5919 21.3857 32.7129 23.0179 31.1883C24.6502 32.704 26.2646 33.5739 27.4978 33.5739C27.8744 33.5739 28.2152 33.4932 28.5112 33.3228C29.7713 32.5964 30.0538 30.3318 29.4036 27.4887C32.1839 26.6322 34 25.2511 34 23.7982ZM28.1614 20.8072C27.9955 21.3856 27.7892 21.982 27.5561 22.5784C27.3722 22.2197 27.1794 21.861 26.9686 21.5022C26.7623 21.1435 26.5426 20.7937 26.3229 20.4529C26.9596 20.5471 27.574 20.6637 28.1614 20.8072ZM26.1076 25.5829C25.7578 26.1883 25.3991 26.7623 25.0269 27.2959C24.3587 27.3542 23.6816 27.3856 23 27.3856C22.3229 27.3856 21.6457 27.3542 20.9821 27.3004C20.6099 26.7668 20.2466 26.1973 19.8969 25.5964C19.5561 25.0089 19.2466 24.4125 18.9641 23.8116C19.2422 23.2107 19.5561 22.6098 19.8924 22.0224C20.2422 21.417 20.6009 20.843 20.9731 20.3094C21.6413 20.2511 22.3184 20.2197 23 20.2197C23.6771 20.2197 24.3543 20.2511 25.0179 20.3049C25.3901 20.8385 25.7534 21.408 26.1031 22.0089C26.4439 22.5964 26.7534 23.1928 27.0359 23.7937C26.7534 24.3946 26.4439 24.9955 26.1076 25.5829ZM27.5561 25C27.7982 25.6009 28.0045 26.2018 28.1749 26.7847C27.5874 26.9282 26.9686 27.0493 26.3274 27.1435C26.5471 26.7982 26.7668 26.4439 26.9731 26.0807C27.1794 25.7219 27.3722 25.3587 27.5561 25ZM23.009 29.7847C22.5919 29.3542 22.1749 28.8744 21.7623 28.3497C22.1659 28.3677 22.5785 28.3811 22.9955 28.3811C23.417 28.3811 23.8341 28.3722 24.2422 28.3497C23.8386 28.8744 23.4215 29.3542 23.009 29.7847ZM19.6726 27.1435C19.0359 27.0493 18.4215 26.9327 17.8341 26.7892C18 26.2107 18.2063 25.6143 18.4395 25.0179C18.6233 25.3766 18.8161 25.7354 19.0269 26.0941C19.2377 26.4529 19.4529 26.8027 19.6726 27.1435ZM22.9865 17.8116C23.4036 18.2421 23.8206 18.722 24.2332 19.2466C23.8296 19.2287 23.417 19.2152 23 19.2152C22.5785 19.2152 22.1614 19.2242 21.7534 19.2466C22.157 18.722 22.574 18.2421 22.9865 17.8116ZM19.6682 20.4529C19.4484 20.7982 19.2287 21.1524 19.0224 21.5157C18.8161 21.8744 18.6233 22.2332 18.4395 22.5919C18.1973 21.991 17.991 21.3901 17.8206 20.8072C18.4081 20.6681 19.0269 20.5471 19.6682 20.4529ZM15.6099 26.0672C14.0224 25.3901 12.9955 24.5022 12.9955 23.7982C12.9955 23.0941 14.0224 22.2018 15.6099 21.5291C15.9955 21.3632 16.417 21.2152 16.852 21.0762C17.1076 21.9551 17.4439 22.8699 17.861 23.8071C17.4484 24.7399 17.1166 25.6502 16.8655 26.5246C16.4215 26.3856 16 26.2331 15.6099 26.0672ZM18.0224 32.4753C17.4126 32.1255 17.148 30.7937 17.3543 29.0807C17.4036 28.6591 17.4843 28.2152 17.583 27.7623C18.4619 27.9775 19.4215 28.1435 20.4305 28.2511C21.0359 29.0807 21.6637 29.834 22.296 30.4932C20.8341 31.852 19.4619 32.5964 18.5291 32.5964C18.3274 32.5919 18.157 32.5515 18.0224 32.4753ZM28.6592 29.0582C28.87 30.7712 28.6099 32.1031 28.0045 32.4573C27.87 32.5381 27.6951 32.5739 27.4888 32.5739C26.5605 32.5739 25.1839 31.834 23.722 30.4843C24.3498 29.8251 24.9776 29.0762 25.574 28.2466C26.5874 28.139 27.5471 27.9731 28.426 27.7533C28.5291 28.2062 28.6099 28.6412 28.6592 29.0582ZM30.3857 26.0672C30 26.2331 29.5785 26.3811 29.1435 26.5201C28.8879 25.6412 28.5516 24.7264 28.1345 23.7892C28.5471 22.8565 28.8789 21.9462 29.13 21.0717C29.574 21.2107 29.9955 21.3632 30.3901 21.5291C31.9776 22.2063 33.0045 23.0941 33.0045 23.7982C33 24.5022 31.9731 25.3946 30.3857 26.0672Z" fill="white"/>
<path d="M22.9956 25.8475C24.1275 25.8475 25.045 24.93 25.045 23.7982C25.045 22.6664 24.1275 21.7489 22.9956 21.7489C21.8638 21.7489 20.9463 22.6664 20.9463 23.7982C20.9463 24.93 21.8638 25.8475 22.9956 25.8475Z" fill="white"/>
<path d="M24.7567 9L36 20.2432H26.7567C25.6522 20.2432 24.7567 19.3478 24.7567 18.2432V9Z" fill="#0169CA"/>
</svg>
