<svg width="45" height="45" viewBox="0 0 45 45" fill="none" xmlns="http://www.w3.org/2000/svg">
<path d="M12.5 9.01636H33.5C34.3339 8.93174 35.1676 9.17765 35.8221 9.70123C36.4766 10.2248 36.8995 10.9843 37 11.8164V34.2164C36.8971 35.0474 36.4735 35.8053 35.8196 36.3284C35.1657 36.8515 34.3333 37.0984 33.5 37.0164H12.5C11.6667 37.0984 10.8343 36.8515 10.1804 36.3284C9.52651 35.8053 9.10293 35.0474 9 34.2164V11.8164C9.10048 10.9843 9.52342 10.2248 10.1779 9.70123C10.8324 9.17765 11.6661 8.93174 12.5 9.01636V9.01636Z" fill="#FFCF24"/>
<path d="M17.7649 30.4338L17.7229 30.4512L17.7362 30.4947C17.995 31.3357 18.4434 31.9957 19.0821 32.4721C19.721 32.9485 20.4784 33.186 21.352 33.186C22.4301 33.186 23.2871 32.8459 23.9168 32.1619C24.5568 31.4676 24.874 30.521 24.874 29.328V21.424V21.374H24.824H23.352H23.302V21.424V29.456C23.302 30.1183 23.1183 30.6552 22.7544 31.0711L22.7543 31.0711C22.402 31.4753 21.9363 31.678 21.352 31.678C20.8179 31.678 20.3765 31.529 20.0241 31.2337C19.6711 30.9378 19.4034 30.4915 19.2239 29.8897L19.2081 29.8366L19.1569 29.8578L17.7649 30.4338ZM32.9419 32.279L32.9425 32.2785C33.6906 31.6605 34.0647 30.8407 34.0647 29.824C34.0647 28.9813 33.8105 28.2706 33.3004 27.6952C32.8013 27.1095 31.9649 26.6205 30.7988 26.2247C30.2291 26.0277 29.7602 25.8443 29.3916 25.6746C29.0229 25.5048 28.7574 25.35 28.5918 25.2106C28.2924 24.9315 28.1447 24.6033 28.1447 24.224C28.1447 23.7602 28.3342 23.3854 28.7168 23.0959L28.7168 23.0959L28.7181 23.0948C29.1027 22.783 29.5765 22.626 30.1427 22.626C30.6774 22.626 31.1248 22.7673 31.4881 23.0476L31.4881 23.0476L31.4894 23.0485C31.8651 23.3199 32.1141 23.6629 32.2388 24.0784L32.2547 24.1316L32.306 24.1101L33.682 23.5341L33.7243 23.5164L33.7102 23.4727C33.4931 22.7996 33.059 22.2417 32.4111 21.7989C31.7617 21.3444 30.9942 21.118 30.1107 21.118C29.1078 21.118 28.2584 21.4203 27.5657 22.0264L27.5654 22.0266C26.8836 22.6327 26.5407 23.366 26.5407 24.224C26.5407 24.8355 26.695 25.3747 27.005 25.8397C27.3148 26.3044 27.778 26.6922 28.3917 27.0044C28.6196 27.1237 29.1938 27.3489 30.1097 27.679L30.1105 27.6793C31.016 27.9882 31.6252 28.3053 31.9473 28.6274L31.9478 28.6279C32.2904 28.96 32.4607 29.3579 32.4607 29.824C32.4607 30.3857 32.2535 30.8352 31.8391 31.1772C31.4233 31.5098 30.8858 31.678 30.2227 31.678C29.9195 31.678 29.6325 31.6258 29.3614 31.5216C29.0891 31.4064 28.8378 31.2546 28.6073 31.0661C28.3874 30.867 28.1934 30.631 28.0252 30.3578C27.8572 30.0847 27.7256 29.7797 27.6308 29.4425L27.6156 29.3885L27.5637 29.4097L26.1557 29.9857L26.1142 30.0027L26.1266 30.0459C26.4066 31.0151 26.9136 31.7819 27.6483 32.3437C28.3827 32.9053 29.2308 33.186 30.1907 33.186C31.2673 33.186 32.1853 32.8843 32.9419 32.279Z" fill="black" stroke="black" stroke-width="0.1"/>
</svg>
