<svg width="66" height="66" viewBox="0 0 66 66" fill="none" xmlns="http://www.w3.org/2000/svg">
<path fill-rule="evenodd" clip-rule="evenodd" d="M19 49L16 14H50L47 49L32.9792 52.5597L19 49Z" fill="#2679B6"/>
<path d="M33 17H47L44 46L33 49V17Z" fill="#57AEFF"/>
<path d="M38.6324 29.4113H33.0001V33.6675H42.5251L44 21H33.0001V25.0526H39.0214L38.6324 29.4113Z" fill="white"/>
<path fill-rule="evenodd" clip-rule="evenodd" d="M33 40.4655L28.5 39.5L28 36H27H25.5H23.5L24 42L33 45V40.4655Z" fill="#E7E7E7"/>
<path fill-rule="evenodd" clip-rule="evenodd" d="M38.2707 33.4874L37.5 39.5L33 40.4727V45L42 42L44 21L38.2707 33.4874Z" fill="white"/>
<path d="M33.0149 23.4397V21H22L22.7471 25.0526H33.0149V25.0421V23.4397Z" fill="#E7E7E7"/>
<path fill-rule="evenodd" clip-rule="evenodd" d="M33.0001 29.4117V32.0555V33.6577V33.6682H28.3332H28.3196L28.2344 32.7116L28.0403 30.5538L27.9386 29.4117H33.0001Z" fill="#E7E7E7"/>
</svg>
