<svg xmlns="http://www.w3.org/2000/svg" width="24" height="24" viewBox="0 0 24 24">
  <g id="folder_closed" transform="translate(-0.5 -0.611)">
    <path id="Trazado_47" data-name="Trazado 47" d="M4.847,4.611h5.805a4.263,4.263,0,0,1,2.375.871L16,8H3.5V5.958A1.348,1.348,0,0,1,4.847,4.611Z" fill="#ffe9a0"/>
    <path id="Trazado_48" data-name="Trazado 48" d="M4.847,4.611h5.805a4.263,4.263,0,0,1,2.375.871L16,8H3.5V5.958A1.348,1.348,0,0,1,4.847,4.611Z" fill="#f7dd8a"/>
    <path id="Trazado_49" data-name="Trazado 49" d="M3.5,7.315H18.579A1.922,1.922,0,0,1,20.5,9.237v8.231a1.922,1.922,0,0,1-1.921,1.921H5.421A1.922,1.922,0,0,1,3.5,17.468Z" fill="#ffc300"/>
    <rect id="spacer" width="24" height="24" transform="translate(0.5 0.611)" fill="none"/>
  </g>
</svg>
