<svg xmlns="http://www.w3.org/2000/svg" width="24" height="24" viewBox="0 0 24 24"><g transform="translate(-2 -0.5)"><path d="M8.75,5.5h10.5A1.605,1.605,0,0,1,21,6.9V18.1a1.605,1.605,0,0,1-1.75,1.4H8.75A1.605,1.605,0,0,1,7,18.1V6.9A1.605,1.605,0,0,1,8.75,5.5Z" transform="translate(0)" fill="#790ac3"/><path d="M15.944,17.719H13.152v-.527h1.115V16.019H13.152v-.527h2.792v.527H14.766v1.174h1.178v.527Zm0-3.908v.526H13.651v.78h-.5V13.031h.5v.78Zm0-1.154H13.152v-.519l1.478-.854v-.031L13.152,10.4V9.876h2.792V10.4H14.567l-.468-.031V10.4l1.252.71v.316l-1.252.714v.031l.468-.031h1.377v.519Zm0-3.342H13.152V8.788h2.293V7.607h.5V9.315Z" transform="translate(3.6)" fill="#fff"/><rect width="24" height="24" transform="translate(2 0.5)" fill="none"/></g></svg>