<svg xmlns="http://www.w3.org/2000/svg" xmlns:xlink="http://www.w3.org/1999/xlink" width="24" height="24" viewBox="0 0 24 24">
  <defs>
    <clipPath id="clip-path">
      <rect id="Rect치ngulo_41" data-name="Rect치ngulo 41" width="24" height="24" fill="none"/>
    </clipPath>
  </defs>
  <g id="image" clip-path="url(#clip-path)">
    <rect id="spacer" width="24" height="24" fill="none"/>
    <rect id="Rect치ngulo_42" data-name="Rect치ngulo 42" width="14" height="14" rx="2" transform="translate(5 5)" fill="#0f70ef"/>
    <path id="Trazado_62" data-name="Trazado 62" d="M0,1.274,14,0V3a2,2,0,0,1-2,2H2A2,2,0,0,1,0,3Z" transform="translate(5 14)" fill="#12de9f"/>
    <path id="Trazado_63" data-name="Trazado 63" d="M6.375.672,14,0V3a2,2,0,0,1-2,2S8.024,4.974,6.453,5c-.738.012-1.159-1.395-.969-2.718A3.355,3.355,0,0,1,6.375.672Z" transform="translate(5 14)" fill="#0aa172"/>
    <circle id="Elipse_3" data-name="Elipse 3" cx="1.5" cy="1.5" r="1.5" transform="translate(7 7)" fill="#ffc72e"/>
  </g>
</svg>
