<svg xmlns="http://www.w3.org/2000/svg" xmlns:xlink="http://www.w3.org/1999/xlink" width="24" height="24" viewBox="0 0 24 24"><defs><clipPath id="a"><rect width="24" height="24" fill="none"/></clipPath></defs><g clip-path="url(#a)"><rect width="14" height="14" rx="2" transform="translate(5 5)" fill="#0f70ef"/><path d="M7.2.484,14-.409S13.947-.706,14,4a2.081,2.081,0,0,1-2.154,2H2.154A2.081,2.081,0,0,1,0,4V2A72.748,72.748,0,0,1,7.2.484Z" transform="translate(5 13)" fill="#12de9f"/><path d="M6.2.438,13-.409S12.951-.706,13,4a2,2,0,0,1-2,2C4.947,6,3.553,4.593,3.9,2.728A4.764,4.764,0,0,1,6.2.438Z" transform="translate(6 13)" fill="#00b47c"/><circle cx="1.5" cy="1.5" r="1.5" transform="translate(7 7)" fill="#ffc72e"/><rect width="24" height="24" fill="none"/></g></svg>