<svg xmlns="http://www.w3.org/2000/svg" width="24" height="24" viewBox="0 0 24 24"><g transform="translate(-335 -365)"><rect width="14" height="14" rx="2" transform="translate(340 370)" fill="#12de9f"/><path d="M6.546.547,14-.409S13.947-.706,14,4a2.081,2.081,0,0,1-2.154,2H2.154A2.081,2.081,0,0,1,0,4V2A57.2,57.2,0,0,1,6.546.547Z" transform="translate(340 378)" fill="#0090ff"/><path d="M6.183.516,13-.409S12.951-.706,13,4a2,2,0,0,1-2,2C4.947,6,3.553,4.593,3.9,2.728A4.548,4.548,0,0,1,6.183.516Z" transform="translate(341 378)" fill="#004cff"/><circle cx="1.5" cy="1.5" r="1.5" transform="translate(341 371)" fill="#f9f100"/><rect width="24" height="24" transform="translate(335 365)" fill="none"/></g></svg>