<svg width="66" height="66" viewBox="0 0 66 66" fill="none" xmlns="http://www.w3.org/2000/svg">
<path d="M18.4426 13.6612H47.1312C48.2703 13.5456 49.4093 13.8815 50.3034 14.5968C51.1975 15.3121 51.7753 16.3496 51.9126 17.4863V48.0874C51.772 49.2227 51.1933 50.2581 50.3 50.9727C49.4068 51.6873 48.2696 52.0246 47.1312 51.9126H18.4426C17.3042 52.0246 16.167 51.6873 15.2738 50.9727C14.3805 50.2581 13.8018 49.2227 13.6612 48.0874V17.4863C13.7985 16.3496 14.3763 15.3121 15.2704 14.5968C16.1644 13.8815 17.3035 13.5456 18.4426 13.6612V13.6612Z" fill="#FB6400"/>
<path d="M30.5355 46.0874C29.3552 46.0874 28.3351 45.7669 27.4754 45.1257C26.6157 44.4845 26.0109 43.5956 25.6612 42.459L27.5628 41.6721C28.0583 43.3333 29.0492 44.1639 30.5355 44.1639C31.3515 44.1639 32.0073 43.8798 32.5027 43.3115C33.0127 42.7286 33.2678 41.9782 33.2678 41.0601V30.0874H35.2787V40.8853C35.2787 42.5027 34.8488 43.7778 33.9891 44.7104C33.1439 45.6284 31.9927 46.0874 30.5355 46.0874Z" fill="white"/>
<path d="M47.8342 41.5629C47.8342 42.9326 47.3314 44.0328 46.326 44.8634C45.3059 45.6794 44.0673 46.0874 42.6101 46.0874C41.3132 46.0874 40.1693 45.7086 39.1784 44.9508C38.1875 44.1931 37.5027 43.1585 37.1238 41.847L39.0473 41.0601C39.1784 41.5264 39.3606 41.949 39.5937 42.3279C39.8269 42.7068 40.0965 43.0346 40.4025 43.3115C40.7231 43.5738 41.0728 43.7851 41.4517 43.9454C41.8305 44.0911 42.2313 44.1639 42.6539 44.1639C43.5719 44.1639 44.3223 43.9308 44.9052 43.4645C45.4881 42.9836 45.7795 42.3497 45.7795 41.5629C45.7795 40.9071 45.5391 40.3461 45.0582 39.8798C44.6065 39.4281 43.7613 38.9909 42.5227 38.5683C41.2695 38.1166 40.4899 37.8106 40.1839 37.6503C38.5227 36.8051 37.6921 35.5592 37.6921 33.9126C37.6921 32.7614 38.1511 31.7778 39.0692 30.9618C40.0018 30.1457 41.1457 29.7377 42.5008 29.7377C43.6957 29.7377 44.7304 30.0437 45.6047 30.6557C46.479 31.2532 47.0619 32.0037 47.3533 32.9071L45.4735 33.694C45.2987 33.1111 44.9489 32.6302 44.4243 32.2514C43.9143 31.8579 43.2877 31.6612 42.5446 31.6612C41.7577 31.6612 41.0947 31.8798 40.5555 32.317C40.0163 32.725 39.7467 33.2568 39.7467 33.9126C39.7467 34.4517 39.958 34.918 40.3806 35.3115C40.8469 35.7049 41.8597 36.1712 43.4189 36.7104C45.0072 37.2496 46.1365 37.9126 46.8069 38.6995C47.4917 39.4718 47.8342 40.4262 47.8342 41.5629Z" fill="white"/>
</svg>
