<svg xmlns="http://www.w3.org/2000/svg" width="24" height="24" viewBox="0 0 24 24"><g transform="translate(0 1.536)"><path d="M6,6.928l6,3.464v1.732l-1.479-.854L6,8.66Z" fill="#337df2"/><path d="M18,6.928l-6,3.464v1.732l1.479-.854L18,8.66Z" fill="#0859db"/><path d="M12,3.464,6,6.928l6,3.464,6-3.464Z" fill="#0b46a4"/><path d="M6,10.392l6,3.464v1.732l-1.479-.854L6,12.124Z" fill="#337df2"/><path d="M18,10.392l-6,3.464v1.732l1.479-.854L18,12.124Z" fill="#0859db"/><path d="M6,13.856l6,3.464v1.732L10.521,18.2,6,15.589Z" fill="#337df2"/><path d="M18,13.856,12,17.32v1.732l1.479-.854L18,15.589Z" fill="#0859db"/><rect width="24" height="24" transform="translate(0 -1.536)" fill="none"/></g></svg>