<svg width="66" height="66" viewBox="0 0 66 66" fill="none" xmlns="http://www.w3.org/2000/svg">
<rect x="15.5" y="22.5" width="35.25" height="21" rx="3.5" stroke="#646464" stroke-width="3"/>
<path d="M22.076 28.0909H24.4943L27.733 35.9957H27.8608L31.0994 28.0909H33.5178V39H31.6214V31.5053H31.5202L28.5053 38.968H27.0884L24.0735 31.4893H23.9723V39H22.076V28.0909ZM39.3665 39H35.6697V28.0909H39.4411C40.5241 28.0909 41.4545 28.3093 42.2322 28.7461C43.0135 29.1793 43.6136 29.8026 44.0327 30.6158C44.4517 31.429 44.6612 32.402 44.6612 33.5348C44.6612 34.6712 44.4499 35.6477 44.0273 36.4645C43.6083 37.2812 43.0028 37.908 42.2109 38.3448C41.4226 38.7816 40.4744 39 39.3665 39ZM37.646 37.2901H39.2706C41.5575 37.2901 42.701 36.0384 42.701 33.5348C42.701 31.0455 41.5771 29.8008 39.3292 29.8008H37.646V37.2901Z" fill="#646464"/>
</svg>
