<svg width="66" height="66" viewBox="0 0 66 66" fill="none" xmlns="http://www.w3.org/2000/svg">
<rect x="14" y="14" width="38.25" height="38.25" rx="5" fill="#646464"/>
<path d="M21.2912 34.9091H24.1932L28.0795 44.3949H28.233L32.1193 34.9091H35.0213V48H32.7457V39.0064H32.6243L29.0064 47.9616H27.3061L23.6882 38.9872H23.5668V48H21.2912V34.9091ZM42.0398 48H37.6037V34.9091H42.1293C43.429 34.9091 44.5455 35.1712 45.4787 35.6953C46.4162 36.2152 47.1364 36.9631 47.6392 37.9389C48.142 38.9148 48.3935 40.0824 48.3935 41.4418C48.3935 42.8054 48.1399 43.9773 47.6328 44.9574C47.13 45.9375 46.4034 46.6896 45.4531 47.2138C44.5071 47.7379 43.3693 48 42.0398 48ZM39.9751 45.9482H41.9247C44.669 45.9482 46.0412 44.446 46.0412 41.4418C46.0412 38.4545 44.6925 36.9609 41.995 36.9609H39.9751V45.9482Z" fill="white"/>
</svg>
