<?xml version="1.0" standalone="no"?><!-- Generator: Gravit.io --><svg xmlns="http://www.w3.org/2000/svg" xmlns:xlink="http://www.w3.org/1999/xlink" style="isolation:isolate" viewBox="0 0 24 24" width="24" height="24"><path d=" M 8.361413 12.960853 L 9.977751 12.960853 L 9.977751 13.413638 L 9.977751 13.413638 Q 9.977751 13.929603 9.767154 14.284986 L 9.767154 14.284986 L 9.767154 14.284986 Q 9.556556 14.64037 9.019531 14.977327 L 9.019531 14.977327 L 9.019531 14.977327 Q 8.719429 15.166865 8.545686 15.324813 L 8.545686 15.324813 L 8.545686 15.324813 Q 8.371943 15.482762 8.298234 15.617018 L 8.298234 15.617018 L 8.298234 15.617018 Q 8.224524 15.751274 8.224524 15.956607 L 8.224524 15.956607 L 8.224524 15.956607 Q 8.224524 16.177734 8.42196 16.304093 L 8.42196 16.304093 L 8.42196 16.304093 Q 8.619395 16.430452 8.945822 16.430452 L 8.945822 16.430452 L 8.945822 16.430452 Q 9.725034 16.430452 10.799083 15.872368 L 10.799083 15.872368 L 11.53091 17.304433 L 11.53091 17.304433 Q 10.251529 18.04679 8.793139 18.04679 L 8.793139 18.04679 L 8.793139 18.04679 Q 7.619056 18.04679 6.950408 17.530825 L 6.950408 17.530825 L 6.950408 17.530825 Q 6.28176 17.014861 6.28176 16.13035 L 6.28176 16.13035 L 6.28176 16.13035 Q 6.28176 15.498556 6.571332 15.035241 L 6.571332 15.035241 L 6.571332 15.035241 Q 6.860904 14.571926 7.529552 14.145465 L 7.529552 14.145465 L 7.529552 14.145465 Q 8.056046 13.808509 8.20873 13.634766 L 8.20873 13.634766 L 8.20873 13.634766 Q 8.361413 13.461022 8.361413 13.229365 L 8.361413 13.229365 L 8.361413 12.960853 L 8.361413 12.960853 Z  M 10.204144 11.112857 L 10.204144 11.112857 L 10.204144 11.112857 Q 10.204144 11.602497 9.925102 11.865744 L 9.925102 11.865744 L 9.925102 11.865744 Q 9.64606 12.128991 9.09324 12.128991 L 9.09324 12.128991 L 9.09324 12.128991 Q 8.561481 12.128991 8.285071 11.865744 L 8.285071 11.865744 L 8.285071 11.865744 Q 8.008662 11.602497 8.008662 11.112857 L 8.008662 11.112857 L 8.008662 11.112857 Q 8.008662 10.639012 8.292969 10.375764 L 8.292969 10.375764 L 8.292969 10.375764 Q 8.577276 10.112517 9.09324 10.112517 L 9.09324 10.112517 L 9.09324 10.112517 Q 9.625 10.112517 9.914572 10.373132 L 9.914572 10.373132 L 9.914572 10.373132 Q 10.204144 10.633747 10.204144 11.112857 Z  M 14.700408 13.466287 L 13.084069 13.466287 L 13.084069 13.013502 L 13.084069 13.013502 Q 13.084069 12.497537 13.294667 12.142154 L 13.294667 12.142154 L 13.294667 12.142154 Q 13.505265 11.78677 14.042289 11.449813 L 14.042289 11.449813 L 14.042289 11.449813 Q 14.46875 11.181301 14.655656 10.965438 L 14.655656 10.965438 L 14.655656 10.965438 Q 14.842561 10.749575 14.842561 10.470533 L 14.842561 10.470533 L 14.842561 10.470533 Q 14.842561 10.249406 14.642493 10.120414 L 14.642493 10.120414 L 14.642493 10.120414 Q 14.442425 9.991423 14.121264 9.991423 L 14.121264 9.991423 L 14.121264 9.991423 Q 13.326257 9.991423 12.262738 10.554772 L 12.262738 10.554772 L 11.53091 9.122707 L 11.53091 9.122707 Q 12.841882 8.375085 14.268682 8.375085 L 14.268682 8.375085 L 14.268682 8.375085 Q 15.442765 8.375085 16.111413 8.89105 L 16.111413 8.89105 L 16.111413 8.89105 Q 16.780061 9.407014 16.780061 10.29679 L 16.780061 10.29679 L 16.780061 10.29679 Q 16.780061 10.933849 16.482592 11.399796 L 16.482592 11.399796 L 16.482592 11.399796 Q 16.185122 11.865744 15.532269 12.281675 L 15.532269 12.281675 L 15.532269 12.281675 Q 14.97945 12.639691 14.839929 12.805537 L 14.839929 12.805537 L 14.839929 12.805537 Q 14.700408 12.971382 14.700408 13.197775 L 14.700408 13.197775 L 14.700408 13.466287 L 14.700408 13.466287 Z  M 12.857677 15.309018 L 12.857677 15.309018 L 12.857677 15.309018 Q 12.857677 14.824643 13.139351 14.561396 L 13.139351 14.561396 L 13.139351 14.561396 Q 13.421026 14.298149 13.96858 14.298149 L 13.96858 14.298149 L 13.96858 14.298149 Q 14.495075 14.298149 14.776749 14.564029 L 14.776749 14.564029 L 14.776749 14.564029 Q 15.058424 14.829908 15.058424 15.309018 L 15.058424 15.309018 L 15.058424 15.309018 Q 15.058424 15.788128 14.766219 16.051376 L 14.766219 16.051376 L 14.766219 16.051376 Q 14.474015 16.314623 13.96858 16.314623 L 13.96858 16.314623 L 13.96858 16.314623 Q 13.447351 16.314623 13.152514 16.054008 L 13.152514 16.054008 L 13.152514 16.054008 Q 12.857677 15.793393 12.857677 15.309018 Z " fill-rule="evenodd" fill="rgb(52,73,94)"/></svg>